<svg xmlns="http://www.w3.org/2000/svg" fill="none" viewBox="0 0 72 71"><path fill="#009ADC" d="M35.764 70.979c19.473 0 35.259-15.786 35.259-35.259S55.237.461 35.764.461.505 16.247.505 35.72s15.786 35.259 35.259 35.259Z"/><path fill="#0076B4" d="M35.057 5.127c.206.894 1.202 1.433 2.212 1.198l9.518-2.201c1.011-.234 2.006.306 2.213 1.199.207.893-.45 1.815-1.462 2.049l-4.089.946a1.672 1.672 0 0 1-.143.04l-5.219 1.207-9.517 2.203c-1.01.233-1.667 1.156-1.462 2.049.195.84 1.086 1.366 2.031 1.232l17.55-4.061c1.011-.234 2.007.307 2.214 1.199.207.892-.45 1.816-1.46 2.049l-2.789.646c-1.011.233-1.667 1.156-1.461 2.05.169.732.87 1.227 1.675 1.252l6.936-1.605a2.03 2.03 0 0 1 .54-.053l1.068-.248c1.011-.232 2.007.307 2.214 1.199.206.894-.45 1.816-1.462 2.05l-16.851 3.898c-.71.376-1.123 1.128-.953 1.86.193.84 1.084 1.367 2.029 1.232l.6-.139c.063-.014.123-.024.184-.033l8.916-2.063c1.011-.234 2.008.305 2.214 1.198.206.893-.451 1.815-1.461 2.05l-12.066 2.792c-.908.296-1.478 1.159-1.282 1.999.206.894 1.202 1.434 2.213 1.199l8.006-1.853c.13-.03.256-.046.381-.053l5.098-1.18c1.01-.233 2.006.307 2.213 1.199.207.894-.451 1.815-1.461 2.05l-9.518 2.201c-1.01.234-1.666 1.157-1.46 2.051.194.839 1.085 1.366 2.03 1.232l5.818-1.348c.063-.014.123-.025.184-.033l3.697-.854 5.22-1.208c1.01-.234 2.005.305 2.212 1.199.206.893-.45 1.815-1.46 2.049l-17.285 4c-.908.296-1.478 1.16-1.282 1.998.168.734.87 1.229 1.675 1.253l4.554-1.054c1.01-.234 2.006.307 2.213 1.199.207.894-.45 1.814-1.462 2.049l-.722.167a2.054 2.054 0 0 1-.506.188l-8.796 2.036c-.71.376-1.123 1.128-.954 1.86.194.84 1.085 1.365 2.03 1.232l22.77-5.27c1.011-.233 2.007.307 2.213 1.201.206.893-.45 1.814-1.462 2.049l-7.671 1.774c-.06.02-.118.036-.18.05l-.335.078c-.907.295-1.477 1.16-1.281 1.998.186.807 1.015 1.323 1.918 1.245l4.676-1.083c1.01-.233 2.006.307 2.213 1.2.207.893-.451 1.814-1.461 2.05l-1.31.303c-.09.035-.187.065-.284.088l-8.206 1.899c-.846.327-1.365 1.154-1.178 1.961.206.894 1.202 1.433 2.212 1.198l7.813-1.807c9.557-8.447 14.301-21.73 11.223-35.031-3.077-13.299-13.175-23.149-25.471-26.54l-7.813 1.808c-1.01.241-1.667 1.162-1.46 2.056Z"/><path fill="#44B8E7" d="m32.76 67.997 2.675-.619c.971-.223 1.6-1.109 1.402-1.965-.18-.774-.975-1.27-1.842-1.193l-9.49 2.195c-.97.225-1.923-.291-2.122-1.148-.197-.858.433-1.742 1.401-1.967l1.256-.291c.088-.033.179-.063.273-.084l12.879-2.981c.811-.313 1.307-1.108 1.129-1.88-.188-.805-1.043-1.311-1.947-1.183l-16.836 3.896c-.969.225-1.924-.294-2.121-1.15-.2-.857.432-1.742 1.4-1.966l2.674-.618c.969-.225 1.601-1.108 1.402-1.965-.162-.704-.836-1.178-1.607-1.203l-9.373 2.17c-.97.225-1.924-.293-2.123-1.15-.197-.857.433-1.74 1.4-1.965l.693-.16c.149-.079.313-.142.486-.182l13.441-3.11c.684-.36 1.078-1.081.916-1.784-.186-.805-1.041-1.311-1.947-1.183l-.576.134a2.172 2.172 0 0 1-.176.032l-8.552 1.978c-.97.226-1.924-.292-2.122-1.148-.199-.858.432-1.743 1.4-1.967l11.574-2.678c.871-.283 1.416-1.113 1.23-1.918-.199-.857-1.154-1.375-2.123-1.15l-7.681 1.777a2.097 2.097 0 0 1-.364.051l-4.89 1.131c-.97.225-1.925-.294-2.124-1.15-.197-.857.434-1.741 1.402-1.966l9.129-2.112c.969-.225 1.6-1.108 1.4-1.966-.186-.805-1.039-1.311-1.945-1.183l-5.582 1.293a1.74 1.74 0 0 1-.178.031l-3.545.82-5.006 1.159c-.97.224-1.924-.293-2.123-1.151-.198-.856.434-1.74 1.402-1.965l16.579-3.837c.87-.283 1.416-1.112 1.229-1.917-.162-.703-.835-1.177-1.606-1.201l-1.646.381a1.96 1.96 0 0 1-.518.051l-1.025.238c-.97.224-1.924-.294-2.123-1.15-.197-.857.433-1.741 1.4-1.966l11.158-2.581c.684-.361 1.079-1.082.916-1.785-.187-.806-1.041-1.311-1.947-1.183L7.904 24.667c-.97.225-1.923-.293-2.121-1.15-.199-.856.432-1.74 1.4-1.965l7.359-1.703c.057-.018.114-.035.172-.049l.32-.074c.87-.283 1.418-1.111 1.23-1.918-.198-.855-1.153-1.373-2.123-1.149l-2.673.618c-.97.225-1.926-.293-2.124-1.149-.197-.856.434-1.741 1.402-1.966l3.915-.906c.048-.014.095-.028.144-.039l7.68-1.777c.97-.225 1.6-1.109 1.402-1.967-.198-.856-1.154-1.373-2.123-1.149l-2.674.618c-.969.224-1.924-.293-2.123-1.149a1.454 1.454 0 0 1 .05-.812C4.715 14.508-1.988 29.311 1.442 44.135c3.432 14.826 15.955 25.18 30.315 26.537a1.437 1.437 0 0 1-.402-.706c-.193-.861.437-1.744 1.406-1.969Z"/><path fill="#6CA23D" d="M47.359 37.239s2.356 2.523 4.377 8.922c2.021 6.396.841 16.16-5.556 22.727 3.199-1.516 11.111-14.142 11.111-14.142l7.406-2.021.338-6.564 2.02-7.07s-6.99-3.283-8.169-3.619c-1.179-.338-8.665.42-9.171.588-.504.169-15.992-8.08-15.992-8.08s3.198-3.03 3.871-3.367c.674-.336 4.547.843 4.883 1.684.336.842 1.852 4.377 1.852 4.377s1.01-1.347.674-3.367c-.337-2.02-1.01-5.219-1.01-5.219l-6.566-2.355S29.683 8.285 29.852 6.938c.169-1.347 2.862-5.555 4.04-5.892 1.178-.337 3.872 2.525 5.219 3.198 1.347.673 5.219 10.438 5.556 8.754.337-1.684 8.753-7.575 8.753-7.575s-21.716-13.131-42.422 5.05c0 0-9.596 9.933-10.438 20.875 0 0-.168 6.565 0 6.061.169-.505 6.061-8.922 7.239-9.764 1.178-.842.673 1.683 2.524 1.514 1.852-.168 2.863.17 2.863 1.18s1.01 2.355 2.861 1.515c1.851-.84 14.982-2.188 14.982-2.188l16.33 7.573Z"/></svg>