<svg xmlns="http://www.w3.org/2000/svg" fill="none" viewBox="0 0 63 63"><path fill="#DF242A" d="M27.126 57.427c-.053-.785-.82-1.381-1.71-1.321l-8.367.555c-.892.06-1.658-.535-1.711-1.319-.054-.787.634-1.479 1.52-1.537l3.598-.238a1.81 1.81 0 0 1 .124-.014l4.59-.305 8.37-.555c.89-.06 1.574-.75 1.522-1.536-.05-.737-.732-1.306-1.551-1.323l-15.436 1.021c-.89.061-1.658-.534-1.711-1.32-.051-.786.632-1.478 1.52-1.535l2.453-.164c.889-.059 1.573-.749 1.52-1.534-.042-.646-.568-1.161-1.25-1.292l-6.096.404c-.16.01-.315 0-.464-.029l-.941.062c-.89.06-1.658-.534-1.71-1.321-.052-.785.633-1.475 1.522-1.535l14.816-.981c.655-.222 1.109-.802 1.065-1.445-.048-.739-.73-1.308-1.55-1.325l-.528.035a1.208 1.208 0 0 1-.16.002l-7.841.521c-.89.06-1.658-.536-1.711-1.321-.052-.785.633-1.477 1.521-1.536l10.612-.703c.81-.125 1.412-.778 1.36-1.518-.05-.786-.82-1.381-1.71-1.321l-7.04.467a1.932 1.932 0 0 1-.331-.008l-4.48.297c-.891.059-1.658-.535-1.712-1.322-.052-.785.634-1.475 1.522-1.533l8.369-.557c.889-.059 1.572-.749 1.518-1.536-.045-.737-.73-1.306-1.548-1.323l-5.118.338a1.436 1.436 0 0 1-.16.004l-3.251.215-4.591.306c-.887.059-1.656-.536-1.71-1.322-.052-.785.633-1.476 1.52-1.534l15.204-1.009c.809-.125 1.41-.78 1.36-1.518-.04-.644-.567-1.161-1.247-1.292l-4.006.266c-.887.059-1.656-.535-1.708-1.322-.053-.785.632-1.475 1.52-1.535l.636-.041c.144-.049.294-.08.455-.091l7.736-.513c.654-.219 1.107-.801 1.064-1.445-.05-.738-.73-1.307-1.551-1.324l-20.024 1.328c-.89.059-1.658-.537-1.711-1.323-.052-.785.632-1.477 1.52-1.535l6.748-.446c.054-.01.104-.016.16-.02l.294-.018c.81-.126 1.41-.781 1.36-1.518-.046-.709-.677-1.262-1.451-1.319l-4.114.272c-.89.059-1.658-.535-1.71-1.322-.052-.785.634-1.475 1.522-1.533l1.153-.078c.08-.018.166-.03.252-.035l7.216-.479c.762-.16 1.315-.79 1.268-1.5-.052-.785-.821-1.38-1.708-1.322l-6.871.455C5.883 11.118.03 21.722.805 33.42c.776 11.696 7.977 21.437 17.932 26.005l6.87-.457c.887-.063 1.572-.755 1.519-1.541Z"/><path fill="#DF242A" d="m38.11 3.747-2.451.162c-.89.06-1.573.751-1.521 1.535.049.711.68 1.262 1.455 1.32l8.7-.576c.89-.06 1.659.535 1.711 1.32.053.786-.631 1.477-1.521 1.535l-1.15.077a1.95 1.95 0 0 1-.252.036l-11.811.783c-.762.16-1.313.79-1.267 1.498.048.738.73 1.307 1.552 1.325l15.434-1.023c.889-.058 1.658.536 1.71 1.321.052.787-.631 1.477-1.52 1.537l-2.451.161c-.889.06-1.574.75-1.521 1.536.043.645.568 1.16 1.247 1.293l8.595-.57c.889-.06 1.658.535 1.71 1.32.05.785-.631 1.478-1.521 1.535l-.635.043c-.145.048-.295.08-.454.09l-12.326.818c-.653.219-1.108.8-1.064 1.445.048.736.729 1.307 1.55 1.323l.527-.036c.055-.002.106-.003.16-.002l7.84-.52c.892-.06 1.66.535 1.713 1.32.05.787-.632 1.478-1.521 1.535l-10.612.704c-.81.125-1.411.779-1.363 1.519.053.785.822 1.381 1.71 1.322l7.044-.469c.11-.008.22-.004.326.008l4.486-.296c.889-.06 1.658.536 1.71 1.321.052.785-.633 1.477-1.521 1.535l-8.37.555c-.89.059-1.573.75-1.521 1.536.049.737.73 1.308 1.549 1.323l5.119-.338c.055-.004.107-.006.16-.004l3.25-.215 4.59-.305c.889-.059 1.658.536 1.711 1.322.053.785-.633 1.477-1.521 1.535l-15.2 1.008c-.813.125-1.412.779-1.363 1.518.043.645.568 1.159 1.248 1.291l1.509-.1c.159-.01.315 0 .464.029l.941-.063c.889-.059 1.658.535 1.711 1.321.051.786-.633 1.476-1.521 1.536l-10.229.678c-.656.221-1.107.801-1.066 1.445.049.738.732 1.307 1.55 1.324l20.026-1.326c.889-.061 1.657.535 1.71 1.32.052.785-.632 1.477-1.521 1.536l-6.748.446a1.345 1.345 0 0 1-.157.019l-.296.02c-.81.126-1.41.778-1.362 1.519.053.785.823 1.38 1.71 1.32l2.453-.162c.889-.059 1.658.535 1.71 1.32.05.786-.632 1.478-1.522 1.536l-3.588.239c-.044.004-.088.011-.133.014l-7.041.466c-.89.06-1.574.751-1.521 1.536.053.785.822 1.38 1.71 1.321l2.45-.161c.89-.06 1.66.534 1.71 1.32a1.29 1.29 0 0 1-.16.71c11.954-4.884 20.004-17.001 19.103-30.593-.9-13.594-10.479-24.541-22.973-27.805.146.197.238.43.256.682.05.792-.634 1.483-1.525 1.542Z"/><path fill="#E45740" d="M22.429 1.918a30.632 30.632 0 0 0-7.281 3.351l6.87-.455c.888-.058 1.657.537 1.709 1.322.048.71-.506 1.34-1.268 1.5l-7.216.479a1.698 1.698 0 0 0-.252.035l-1.153.078c-.888.059-1.573.748-1.521 1.533.051.787.82 1.381 1.709 1.322l4.114-.272c.774.058 1.405.61 1.452 1.319.049.736-.551 1.392-1.361 1.518l-.293.018c-.057.004-.107.01-.161.02l-6.747.446c-.889.059-1.572.75-1.521 1.535.053.786.82 1.382 1.71 1.323l20.025-1.328c.82.018 1.5.586 1.55 1.324.044.645-.409 1.227-1.063 1.445l-7.736.513a1.767 1.767 0 0 0-.455.091l-.635.041c-.889.061-1.573.75-1.521 1.535.052.787.82 1.381 1.708 1.322l4.006-.266c.68.131 1.207.648 1.248 1.292.049.737-.553 1.393-1.361 1.518l-15.203 1.009c-.888.059-1.572.749-1.52 1.534.053.786.822 1.381 1.709 1.322l4.59-.306 3.252-.215c.053.002.105 0 .16-.004l5.118-.338c.817.018 1.503.586 1.548 1.323.055.787-.63 1.478-1.518 1.536l-8.37.557c-.888.059-1.573.748-1.521 1.533.054.787.82 1.381 1.712 1.322l4.48-.297c.109.012.22.015.332.008l7.039-.467c.891-.06 1.66.535 1.711 1.321.051.739-.552 1.393-1.361 1.518l-10.612.703c-.888.06-1.572.751-1.521 1.536.053.785.822 1.381 1.71 1.321l7.843-.521c.053.003.105.002.159-.002l.528-.035c.819.018 1.502.586 1.55 1.325.044.644-.41 1.224-1.065 1.445l-14.816.981c-.89.061-1.574.75-1.521 1.535.05.787.82 1.381 1.709 1.321l.94-.062c.149.029.306.039.465.029l6.097-.404c.68.131 1.207.646 1.25 1.292.053.785-.632 1.476-1.521 1.534l-2.452.164c-.89.058-1.572.749-1.521 1.535.053.786.822 1.381 1.71 1.32l15.437-1.021c.818.018 1.502.586 1.55 1.323.053.786-.632 1.477-1.52 1.536l-8.371.555-4.59.305a1.81 1.81 0 0 0-.124.014l-3.597.238c-.887.059-1.574.75-1.521 1.537.053.784.819 1.379 1.71 1.319l8.369-.555c.89-.06 1.656.536 1.709 1.321.053.786-.632 1.479-1.52 1.535l-6.87.457a30.68 30.68 0 0 0 7.659 2.361c2.336.396 4.758.529 7.223.366a30.866 30.866 0 0 0 9.63-2.218 1.29 1.29 0 0 0 .16-.71c-.05-.786-.82-1.38-1.71-1.32l-2.45.161c-.888.059-1.657-.536-1.71-1.321-.053-.785.633-1.477 1.52-1.536l7.042-.466c.045-.003.089-.01.133-.014l3.588-.239c.891-.059 1.573-.75 1.522-1.536-.052-.785-.821-1.379-1.71-1.32l-2.452.162c-.888.06-1.658-.535-1.711-1.32-.048-.74.554-1.393 1.362-1.519l.296-.02c.053-.003.106-.01.157-.019l6.748-.446c.889-.06 1.572-.751 1.52-1.536-.052-.785-.82-1.381-1.71-1.32L33.82 46.93c-.818-.018-1.502-.586-1.551-1.324-.041-.645.41-1.225 1.066-1.445l10.229-.678c.889-.061 1.572-.75 1.521-1.536-.053-.786-.822-1.38-1.711-1.321l-.941.063c-.148-.029-.305-.039-.464-.029l-1.509.1c-.68-.132-1.205-.646-1.248-1.291-.05-.738.55-1.393 1.363-1.518l15.2-1.008c.888-.059 1.573-.75 1.521-1.535-.053-.786-.822-1.381-1.711-1.322l-4.59.305-3.25.215c-.053-.002-.105 0-.16.004l-5.12.338c-.816-.016-1.5-.586-1.548-1.323-.053-.786.63-1.478 1.52-1.536l8.37-.555c.889-.059 1.573-.75 1.522-1.535-.051-.785-.821-1.381-1.71-1.321l-4.486.296a1.766 1.766 0 0 0-.326-.008l-7.043.469c-.89.059-1.658-.537-1.711-1.322-.048-.739.554-1.394 1.363-1.519l10.612-.704c.889-.058 1.57-.748 1.52-1.535-.052-.785-.82-1.38-1.712-1.32l-7.84.52c-.054-.001-.105 0-.16.002l-.527.036c-.82-.017-1.502-.587-1.55-1.323-.044-.646.41-1.227 1.064-1.445l12.326-.818c.159-.01.31-.042.454-.09l.635-.043c.89-.058 1.57-.75 1.52-1.535-.051-.785-.82-1.38-1.71-1.32l-8.594.57c-.68-.133-1.204-.648-1.247-1.293-.053-.786.633-1.477 1.521-1.536l2.451-.161c.89-.061 1.572-.75 1.52-1.537-.052-.785-.821-1.379-1.71-1.321l-15.434 1.023c-.82-.019-1.504-.587-1.552-1.325-.046-.708.505-1.338 1.267-1.498l11.81-.783c.086-.006.17-.02.254-.036l1.149-.077c.89-.059 1.573-.749 1.521-1.535-.052-.785-.821-1.38-1.71-1.32l-8.701.576c-.775-.059-1.406-.609-1.455-1.32-.052-.784.633-1.476 1.52-1.535l2.452-.162c.89-.059 1.574-.75 1.523-1.535a1.292 1.292 0 0 0-.256-.682 30.906 30.906 0 0 0-9.84-.928 30.878 30.878 0 0 0-7.108 1.314Z"/></svg>