<svg xmlns="http://www.w3.org/2000/svg" fill="none" viewBox="0 0 83 83"><path fill="#6DBCB7" d="M36.315 6.614c.395.975 1.622 1.408 2.724.96L49.43 3.362c1.102-.447 2.327-.016 2.722.959.397.977-.181 2.141-1.285 2.588l-4.465 1.81c-.05.024-.1.049-.153.07l-5.695 2.31-10.391 4.213c-1.103.446-1.682 1.611-1.286 2.586.372.916 1.477 1.353 2.523 1.031l19.159-7.769c1.104-.446 2.329-.015 2.725.96.396.975-.185 2.14-1.288 2.588l-3.042 1.232c-1.102.447-1.682 1.611-1.286 2.586.324.801 1.206 1.235 2.123 1.117l7.573-3.07c.198-.08.398-.131.6-.156l1.169-.475c1.104-.446 2.329-.014 2.724.961.396.974-.185 2.139-1.286 2.585l-18.395 7.458c-.738.555-1.072 1.481-.748 2.281.373.916 1.477 1.354 2.526 1.031l.654-.266c.066-.027.135-.051.2-.072l9.733-3.945c1.104-.447 2.33-.016 2.726.96.395.975-.185 2.14-1.286 2.586l-13.173 5.341c-.976.498-1.465 1.58-1.093 2.497.396.975 1.622 1.407 2.726.959l8.737-3.542c.14-.058.282-.1.423-.129l5.566-2.256c1.103-.447 2.328-.015 2.723.959.397.977-.183 2.14-1.286 2.586l-10.39 4.213c-1.103.447-1.679 1.612-1.284 2.587.371.917 1.475 1.353 2.521 1.031l6.354-2.577c.066-.026.134-.05.2-.07l4.038-1.637 5.696-2.31c1.104-.447 2.329-.015 2.726.96.396.975-.184 2.141-1.287 2.588l-18.87 7.649c-.973.499-1.463 1.581-1.091 2.496.325.8 1.208 1.234 2.123 1.117l4.971-2.016c1.104-.446 2.329-.015 2.725.96.396.975-.184 2.139-1.285 2.586l-.79.319c-.16.122-.341.225-.54.306l-9.601 3.893c-.738.555-1.07 1.48-.745 2.281.37.916 1.476 1.353 2.522 1.031l24.857-10.078c1.103-.447 2.328-.016 2.725.959.396.976-.186 2.141-1.288 2.588l-8.373 3.396a2.848 2.848 0 0 1-.195.089l-.366.148c-.977.498-1.464 1.58-1.092 2.496.357.879 1.389 1.316 2.397 1.064l5.105-2.07c1.104-.446 2.329-.016 2.725.961.396.975-.183 2.139-1.288 2.586l-1.43.579a2.224 2.224 0 0 1-.305.152l-8.96 3.632c-.897.521-1.337 1.555-.978 2.436.395.974 1.621 1.406 2.722.959l8.529-3.458c9.308-11.298 12.287-27.208 6.4-41.727C73.897 11.536 60.677 2.195 46.13.568l-8.527 3.459c-1.105.448-1.681 1.613-1.288 2.587Z"/><path fill="#16859A" d="m44.878 79.341 3.042-1.234c1.104-.447 1.683-1.609 1.287-2.584-.356-.881-1.392-1.317-2.398-1.066l-10.803 4.381c-1.104.447-2.326.016-2.724-.96-.395-.976.185-2.138 1.287-2.585l1.428-.581c.097-.056.199-.108.307-.151l14.657-5.943c.898-.523 1.338-1.555.98-2.434-.369-.916-1.477-1.354-2.523-1.031L30.26 72.921c-1.104.447-2.328.016-2.724-.96-.397-.976.183-2.14 1.284-2.587l3.044-1.233c1.103-.448 1.683-1.611 1.288-2.587-.326-.799-1.21-1.232-2.125-1.115l-10.668 4.325c-1.104.446-2.33.016-2.725-.96-.396-.975.184-2.139 1.287-2.586l.786-.32c.163-.121.343-.225.542-.305l15.297-6.202c.74-.556 1.069-1.481.747-2.282-.372-.916-1.477-1.352-2.522-1.031l-.656.268a2.867 2.867 0 0 1-.203.071l-9.731 3.944c-1.104.449-2.331.016-2.725-.959-.396-.976.183-2.14 1.287-2.587l13.17-5.34c.977-.497 1.466-1.58 1.093-2.497-.395-.975-1.62-1.408-2.724-.961l-8.74 3.544a2.373 2.373 0 0 1-.422.128l-5.564 2.258c-1.104.446-2.33.014-2.725-.96-.396-.976.185-2.141 1.286-2.587l10.389-4.213c1.104-.447 1.683-1.611 1.288-2.586-.373-.916-1.477-1.354-2.524-1.031l-6.353 2.576a2.167 2.167 0 0 1-.2.071l-4.037 1.636-5.696 2.311c-1.104.447-2.328.016-2.726-.961-.395-.975.185-2.139 1.286-2.586l18.87-7.65c.974-.498 1.462-1.58 1.091-2.496-.324-.801-1.207-1.234-2.124-1.117l-1.875.76a2.28 2.28 0 0 1-.6.156l-1.168.475c-1.104.447-2.33.016-2.725-.961-.395-.975.184-2.139 1.285-2.585l12.698-5.148c.74-.554 1.071-1.479.748-2.281-.372-.915-1.478-1.353-2.524-1.03L7.365 32.818c-1.104.447-2.33.014-2.726-.961-.395-.975.184-2.139 1.287-2.586l8.376-3.395a2.14 2.14 0 0 1 .193-.09l.365-.148c.974-.498 1.463-1.581 1.093-2.498-.395-.974-1.623-1.406-2.726-.959l-3.043 1.233c-1.103.448-2.329.016-2.726-.958-.395-.977.185-2.141 1.289-2.588l4.456-1.807c.053-.025.104-.051.16-.073l8.742-3.544c1.103-.447 1.682-1.611 1.285-2.587-.396-.976-1.621-1.407-2.725-.961l-3.042 1.234c-1.104.446-2.328.016-2.726-.96a1.754 1.754 0 0 1-.093-.967C1.68 21.411-3.455 40.162 3.386 57.033c6.841 16.871 23.586 26.752 40.809 25.657a1.73 1.73 0 0 1-.607-.76c-.392-.98.187-2.142 1.29-2.589Z"/><path fill="#3AB0B4" d="M65.546 75.091a40.917 40.917 0 0 0 7.836-7.308l-8.529 3.458c-1.1.447-2.327.015-2.722-.959-.358-.881.081-1.914.979-2.436l8.959-3.632a2.41 2.41 0 0 0 .305-.152l1.43-.579c1.105-.447 1.684-1.611 1.288-2.586-.396-.977-1.621-1.407-2.725-.961l-5.105 2.07c-1.009.252-2.04-.186-2.397-1.064-.372-.916.115-1.998 1.092-2.496l.366-.148c.066-.027.131-.057.195-.089l8.373-3.396c1.103-.447 1.685-1.612 1.288-2.588-.396-.975-1.622-1.406-2.725-.959L48.597 61.344c-1.047.321-2.151-.115-2.522-1.031-.324-.801.007-1.727.745-2.281l9.602-3.893c.198-.081.38-.184.54-.306l.789-.319c1.102-.447 1.681-1.611 1.285-2.586-.396-.975-1.62-1.406-2.725-.96l-4.971 2.016c-.915.117-1.798-.317-2.123-1.117-.372-.915.118-1.997 1.092-2.496l18.869-7.649c1.104-.447 1.683-1.613 1.287-2.588-.396-.975-1.622-1.407-2.726-.96l-5.696 2.31-4.037 1.637a2.988 2.988 0 0 0-.2.07l-6.355 2.577c-1.047.321-2.15-.114-2.52-1.031-.396-.975.181-2.14 1.284-2.587l10.389-4.213c1.104-.446 1.684-1.609 1.286-2.586-.395-.974-1.62-1.406-2.723-.959l-5.566 2.256a2.355 2.355 0 0 0-.423.129l-8.737 3.542c-1.104.448-2.33.016-2.726-.959-.372-.917.117-1.999 1.093-2.497l13.173-5.341c1.102-.446 1.681-1.611 1.286-2.586-.396-.976-1.622-1.407-2.726-.96l-9.732 3.945a2.689 2.689 0 0 0-.2.072l-.655.266c-1.05.322-2.153-.115-2.526-1.031-.324-.8.01-1.727.748-2.281l18.395-7.458c1.102-.446 1.683-1.611 1.286-2.585-.395-.975-1.62-1.407-2.724-.961l-1.168.475a2.39 2.39 0 0 0-.601.156l-7.573 3.07c-.917.118-1.799-.316-2.123-1.117-.396-.975.185-2.139 1.286-2.586l3.042-1.232c1.104-.448 1.684-1.613 1.288-2.588-.396-.975-1.621-1.406-2.725-.96L31.4 18.93c-1.047.321-2.151-.115-2.523-1.031-.396-.975.184-2.14 1.286-2.586L40.554 11.1l5.695-2.31c.054-.021.104-.046.153-.07l4.465-1.81c1.104-.447 1.683-1.611 1.285-2.588-.395-.975-1.62-1.406-2.722-.959L39.04 7.575c-1.102.448-2.329.015-2.724-.96-.394-.975.183-2.14 1.287-2.586L46.13.57a40.987 40.987 0 0 0-10.711.215A41.321 41.321 0 0 0 26.1 3.348a41.408 41.408 0 0 0-8.473 4.65 40.799 40.799 0 0 0-2.82 2.203c-.059.32-.032.654.093.967.397.976 1.622 1.406 2.726.96l3.042-1.234c1.104-.446 2.329-.015 2.725.961.396.976-.183 2.14-1.285 2.587l-8.742 3.544c-.056.022-.107.048-.16.073L8.75 19.866c-1.104.447-1.684 1.611-1.289 2.588.396.974 1.623 1.406 2.726.958l3.043-1.233c1.103-.447 2.331-.015 2.726.959.37.917-.119 2-1.093 2.498l-.365.148a2.02 2.02 0 0 0-.193.09L5.93 29.269c-1.104.447-1.682 1.611-1.287 2.586.396.975 1.622 1.408 2.726.961l24.855-10.078c1.047-.322 2.152.115 2.524 1.03.323.802-.008 1.728-.748 2.281l-12.698 5.148c-1.102.446-1.68 1.61-1.285 2.585.395.977 1.621 1.408 2.725.961l1.168-.475c.201-.024.402-.075.6-.156l1.875-.76c.917-.117 1.8.316 2.124 1.117.371.916-.117 1.998-1.091 2.496l-18.87 7.65c-1.102.447-1.681 1.611-1.286 2.586.397.977 1.622 1.408 2.726.961l5.696-2.311 4.037-1.636a2.51 2.51 0 0 0 .2-.071l6.353-2.576c1.048-.322 2.151.115 2.524 1.031.395.975-.185 2.139-1.288 2.586L17.12 49.398c-1.102.446-1.682 1.611-1.286 2.587.395.974 1.62 1.406 2.725.96l5.564-2.258c.141-.029.283-.071.422-.128l8.74-3.544c1.104-.447 2.33-.014 2.724.961.373.917-.116 2-1.092 2.497l-13.171 5.34c-1.104.447-1.683 1.611-1.287 2.587.394.975 1.621 1.408 2.725.959l9.731-3.944c.07-.022.135-.044.203-.071l.656-.268c1.046-.32 2.15.115 2.522 1.031.322.801-.007 1.727-.747 2.282l-15.297 6.202c-.199.08-.379.184-.542.305l-.786.32c-1.104.447-1.683 1.611-1.287 2.586.395.976 1.621 1.406 2.725.96l10.668-4.325c.915-.117 1.8.316 2.125 1.115.395.976-.186 2.139-1.288 2.587l-3.044 1.233c-1.102.447-1.682 1.611-1.284 2.587.396.976 1.62 1.407 2.724.96l19.158-7.768c1.047-.322 2.154.115 2.523 1.031.357.879-.082 1.91-.98 2.434l-14.657 5.943c-.107.043-.21.096-.307.151l-1.428.581c-1.103.447-1.682 1.609-1.287 2.585.397.976 1.62 1.407 2.724.96l10.803-4.381c1.007-.251 2.042.186 2.398 1.066.396.975-.183 2.137-1.287 2.584l-3.042 1.234c-1.103.447-1.682 1.609-1.287 2.587.128.313.341.569.607.76a41.016 41.016 0 0 0 3.559-.384 41.424 41.424 0 0 0 9.317-2.563 41.305 41.305 0 0 0 8.469-4.648Z"/><path fill="#6DBCB7" d="M38.795 40.34a1.798 1.798 0 1 0 0-3.596 1.798 1.798 0 0 0 0 3.596ZM61.193 64.442a1.801 1.801 0 0 1-1.353-3.336 1.8 1.8 0 0 1 1.353 3.336Z"/><path fill="#3AB0B4" d="M17.329 61.703a1.798 1.798 0 1 0 0-3.596 1.798 1.798 0 0 0 0 3.596Z"/><path fill="#16859A" d="M21.023 23.049a1.867 1.867 0 0 1-2.433-1.028 1.87 1.87 0 0 1 1.029-2.436l4.177-1.692a1.87 1.87 0 1 1 1.404 3.463l-4.177 1.693Z"/><path fill="#6DBCB7" d="M41.863 55.931a1.87 1.87 0 0 1-2.435-1.028 1.873 1.873 0 0 1 1.031-2.435l4.179-1.694a1.87 1.87 0 1 1 1.404 3.464l-4.179 1.693Z"/></svg>