<svg xmlns="http://www.w3.org/2000/svg" xml:space="preserve" id="Layer_1" version="1.1" viewBox="0 0 512 512"><path d="M364.111 161.133c-4.468-4.222-4.667-11.267-.444-15.735l95.722-101.287c4.223-4.468 11.267-4.667 15.735-.444 4.468 4.222 4.667 11.267.444 15.735l-95.722 101.287a11.096 11.096 0 0 1-8.092 3.485 11.096 11.096 0 0 1-7.643-3.041zm-231.957-.444a11.096 11.096 0 0 0 8.092 3.485c2.743 0 5.492-1.008 7.643-3.041 4.468-4.222 4.667-11.267.444-15.735L52.611 44.111c-4.223-4.468-11.267-4.667-15.735-.444-4.468 4.222-4.667 11.267-.444 15.735l95.722 101.287zm49.378 195.782L62.324 470.261H44.522c-6.147 0-11.13 4.983-11.13 11.13s4.983 11.13 11.13 11.13h44.522c6.147 0 11.13-4.983 11.13-11.13 0-4.54-2.721-8.437-6.618-10.169l103.347-98.649c4.447-4.244 4.61-11.29.366-15.736-4.245-4.447-11.29-4.611-15.737-.366zm96.729 124.92h-11.13v-94.609c0-6.147-4.983-11.13-11.13-11.13-6.147 0-11.13 4.983-11.13 11.13v94.609h-11.13c-6.147 0-11.13 4.983-11.13 11.13s4.983 11.13 11.13 11.13h44.522c6.147 0 11.13-4.983 11.13-11.13s-4.985-11.13-11.132-11.13zm189.217-11.13h-17.802l-119.208-113.79c-4.448-4.245-11.492-4.08-15.736.366-4.244 4.447-4.082 11.492.366 15.736l103.347 98.649c-3.897 1.732-6.618 5.63-6.618 10.169 0 6.147 4.983 11.13 11.13 11.13h44.522c6.147 0 11.13-4.983 11.13-11.13s-4.983-11.13-11.131-11.13z" style="fill:#877e73"/><path d="M100.174 205.81V192c0-86.061 69.766-155.826 155.826-155.826 86.061 0 155.826 69.766 155.826 155.826v13.81H100.174z" style="fill:#b6cecc"/><path d="M354.183 157.973c-1.227.434-2.479.64-3.71.64-4.586 0-8.88-2.855-10.494-7.424-12.548-35.507-46.298-59.363-83.979-59.363-6.147 0-11.13-4.983-11.13-11.13 0-6.147 4.983-11.13 11.13-11.13 47.097 0 89.281 29.821 104.968 74.204 2.049 5.795-.99 12.154-6.785 14.203z" style="fill:#cfe5e2"/><path d="M500.847 292.174h-22.239c0 67.618-99.665 122.435-222.609 122.435S33.391 359.792 33.391 292.174H11.153c-10.234 0-15.044-12.65-7.395-19.449l46.664-41.48a111.306 111.306 0 0 1 73.946-28.114H387.63c27.26 0 53.572 10.004 73.946 28.114l46.664 41.48c7.651 6.799 2.842 19.449-7.393 19.449z" style="fill:#9379ad"/><path d="M478.609 292.174c0 67.618-99.665 122.435-222.609 122.435S33.391 359.792 33.391 292.174h445.218z" style="fill:#694887"/><path d="M512 41.739c0 18.441-14.949 33.391-33.391 33.391s-33.391-14.95-33.391-33.391 14.949-33.391 33.391-33.391S512 23.298 512 41.739zM33.391 8.348C14.949 8.348 0 23.298 0 41.739S14.949 75.13 33.391 75.13s33.391-14.95 33.391-33.391S51.833 8.348 33.391 8.348z" style="fill:#80995f"/><path d="M484.174 19.478c9.22 0 16.696 7.475 16.696 16.696s-7.475 16.696-16.696 16.696c-9.22 0-16.696-7.475-16.696-16.696s7.476-16.696 16.696-16.696zm-456.348 0c-9.22 0-16.696 7.475-16.696 16.696S18.606 52.87 27.826 52.87s16.696-7.475 16.696-16.696-7.475-16.696-16.696-16.696z" style="fill:#a6be65"/></svg>