<svg xmlns="http://www.w3.org/2000/svg" fill="none" viewBox="0 0 399 393"><path fill="#F6CF84" d="M180.547 12.523c10.435 17.11 27.505 17.11 37.938 0 10.433-17.111 22.201-15.035 26.152 4.61 3.951 19.646 19.994 25.485 35.648 12.977 15.656-12.511 26.004-6.535 22.998 13.278-3.008 19.812 10.07 30.786 29.061 24.383 18.99-6.402 26.672 2.755 17.07 20.345-9.604 17.59-1.067 32.377 18.968 32.855 20.036.479 24.122 11.709 9.083 24.953-15.04 13.244-12.075 30.057 6.588 37.36 18.664 7.304 18.664 19.255 0 26.558-18.663 7.303-21.628 24.116-6.588 37.36 15.039 13.244 10.953 24.474-9.083 24.952-20.035.48-28.571 15.266-18.968 32.857 9.602 17.592 1.92 26.746-17.07 20.342-18.99-6.402-32.068 4.572-29.061 24.383 3.006 19.814-7.342 25.79-22.998 13.279-15.654-12.508-31.697-6.67-35.648 12.977-3.951 19.647-15.72 21.722-26.152 4.61-10.434-17.109-27.504-17.109-37.938 0-10.432 17.111-22.2 15.036-26.151-4.61-3.951-19.646-19.994-25.484-35.648-12.977-15.656 12.511-26.006 6.535-22.997-13.279 3.007-19.811-10.071-30.785-29.062-24.383-18.992 6.404-26.674-2.75-17.072-20.342s1.066-32.377-18.97-32.857c-20.032-.479-24.12-11.708-9.08-24.952 15.04-13.244 12.074-30.058-6.588-37.36-18.663-7.303-18.663-19.254 0-26.558 18.662-7.304 21.628-24.116 6.588-37.362-15.04-13.246-10.952-24.475 9.08-24.953 20.036-.479 28.57-15.264 18.97-32.854-9.601-17.59-1.92-26.747 17.072-20.345 18.99 6.403 32.068-4.571 29.062-24.383-3.009-19.813 7.341-25.789 22.997-13.278 15.654 12.509 31.697 6.67 35.648-12.977 3.951-19.644 15.719-21.72 26.151-4.609Z"/><path fill="#EA7F4E" d="M169.128 323.255c0-3.879-3.59-7.057-7.979-7.057h-41.348c-4.389 0-7.98-3.177-7.98-7.056 0-3.886 3.592-7.06 7.98-7.06h17.766c.207-.014.414-.026.624-.026h22.675l41.346.002c4.389 0 7.979-3.179 7.979-7.059 0-3.646-3.168-6.668-7.191-7.019l-76.252-.003c-4.389 0-7.98-3.175-7.98-7.056 0-3.883 3.592-7.057 7.98-7.057h12.111c4.39 0 7.98-3.178 7.98-7.057 0-3.185-2.42-5.892-5.713-6.762h-30.135a8.762 8.762 0 0 1-2.268-.297h-4.648c-4.389 0-7.982-3.176-7.982-7.059 0-3.879 3.594-7.052 7.982-7.052h73.202c3.293-.872 5.713-3.578 5.713-6.762 0-3.646-3.171-6.668-7.192-7.021h-2.609c-.268 0-.531-.014-.79-.036h-38.735c-4.388 0-7.981-3.177-7.981-7.057 0-3.882 3.594-7.056 7.981-7.056h52.42c4.024-.353 7.198-3.376 7.198-7.021 0-3.881-3.594-7.059-7.983-7.059h-34.783a9.426 9.426 0 0 1-1.618-.144h-22.149c-4.389 0-7.98-3.179-7.98-7.057 0-3.883 3.592-7.057 7.98-7.057h41.348c4.389 0 7.979-3.179 7.979-7.061 0-3.646-3.17-6.667-7.193-7.021h-25.282c-.267 0-.53-.01-.79-.035H104.077c-4.39 0-7.981-3.175-7.981-7.058 0-3.882 3.592-7.056 7.981-7.056h75.095c4.023-.352 7.193-3.376 7.193-7.02 0-3.184-2.42-5.89-5.715-6.762h-19.781c-4.39 0-7.982-3.176-7.982-7.055 0-3.883 3.593-7.055 7.982-7.055h3.137a8.733 8.733 0 0 1 2.266-.299h38.213c3.291-.869 5.709-3.576 5.709-6.762 0-3.646-3.168-6.668-7.191-7.02h-98.924c-4.391 0-7.982-3.177-7.982-7.059 0-3.88 3.592-7.055 7.982-7.055h33.328a8.96 8.96 0 0 1 .788-.038h1.456c4.023-.353 7.191-3.375 7.191-7.018 0-3.499-2.924-6.421-6.719-6.96h-20.318c-4.389 0-7.98-3.178-7.98-7.059 0-3.881 3.592-7.055 7.98-7.055h5.694a9.025 9.025 0 0 1 1.251-.096h35.652c3.799-.541 6.729-3.46 6.729-6.965 0-3.877-3.59-7.055-7.979-7.055H127.21C79.739 88.52 47.501 138.768 47.501 196.552c0 57.778 32.238 108.033 79.709 133.747h33.939c4.389.013 7.979-3.164 7.979-7.044Z"/><path fill="#F3AA4F" d="M240.65 62.815h-12.112c-4.39 0-7.979 3.178-7.979 7.055 0 3.505 2.929 6.424 6.728 6.965h42.984c4.39 0 7.979 3.17 7.979 7.053 0 3.882-3.589 7.056-7.979 7.056h-5.686c-.411.06-.832.101-1.262.101h-58.334c-3.795.539-6.721 3.461-6.721 6.96 0 3.643 3.173 6.665 7.195 7.018h76.249c4.391 0 7.982 3.177 7.982 7.057 0 3.883-3.592 7.06-7.982 7.06H269.6c-4.387 0-7.979 3.175-7.979 7.055 0 3.186 2.419 5.893 5.714 6.762h42.457c4.391 0 7.979 3.175 7.979 7.057 0 3.879-3.588 7.057-7.979 7.057h-3.135a9.003 9.003 0 0 1-2.271.295h-60.88c-3.296.872-5.716 3.578-5.716 6.762 0 3.644 3.172 6.668 7.193 7.02h2.61c.267 0 .528.014.79.037h38.734c4.391 0 7.98 3.175 7.98 7.055 0 3.885-3.59 7.057-7.98 7.057h-52.422c-4.023.354-7.193 3.375-7.193 7.021 0 3.882 3.592 7.061 7.982 7.061h34.781c.555 0 1.094.05 1.618.144l22.149.002c4.39 0 7.981 3.176 7.981 7.055 0 3.883-3.592 7.059-7.981 7.059l-41.348-.002c-4.391 0-7.979 3.178-7.979 7.059 0 3.646 3.17 6.669 7.193 7.021h25.284c.265 0 .528.011.788.035h38.735c4.389 0 7.982 3.172 7.982 7.059 0 3.879-3.594 7.055-7.982 7.055h-75.094c-4.024.353-7.194 3.374-7.194 7.021 0 3.184 2.419 5.89 5.714 6.762h7.46c.79 0 1.55.106 2.271.298h4.648c4.39 0 7.979 3.172 7.979 7.051 0 3.883-3.59 7.059-7.979 7.059h-50.531c-3.293.871-5.713 3.577-5.713 6.762 0 3.648 3.17 6.668 7.193 7.02h98.924c4.391 0 7.981 3.176 7.981 7.058 0 3.882-3.591 7.057-7.981 7.057h-33.33c-.26.024-.522.038-.785.038h-1.457c-4.022.351-7.192 3.372-7.192 7.019 0 3.88 3.593 7.059 7.979 7.059h12.112c4.39 0 7.982 3.173 7.982 7.052 0 3.887-3.593 7.063-7.982 7.063h-17.735c-.217.01-.434.027-.654.027h-34.785c-4.39 0-7.979 3.176-7.979 7.056 0 3.879 3.59 7.056 7.979 7.056h12.112c4.389 0 7.979 3.176 7.979 7.057a6.37 6.37 0 0 1-1.021 3.438c60.383-20.121 103.924-77.094 103.924-144.242 0-67.147-43.541-124.12-103.924-144.244a6.376 6.376 0 0 1 1.021 3.439c.003 3.868-3.588 7.043-7.977 7.043Z"/><path fill="#EE944F" d="M164.113 48.702a151 151 0 0 0-36.903 14.113h33.939c4.389 0 7.979 3.178 7.979 7.055 0 3.505-2.93 6.424-6.729 6.965h-35.652c-.425 0-.844.039-1.251.096h-5.694c-4.389 0-7.98 3.174-7.98 7.055s3.592 7.059 7.98 7.059h20.318c3.795.539 6.719 3.461 6.719 6.96 0 3.643-3.168 6.665-7.191 7.018h-1.456a8.96 8.96 0 0 0-.788.038h-33.328c-4.39 0-7.982 3.175-7.982 7.055 0 3.882 3.592 7.059 7.982 7.059H203c4.023.352 7.191 3.373 7.191 7.02 0 3.186-2.418 5.893-5.709 6.762h-38.213a8.69 8.69 0 0 0-2.266.299h-3.137c-4.39 0-7.982 3.172-7.982 7.055 0 3.879 3.593 7.055 7.982 7.055h19.781c3.295.872 5.715 3.578 5.715 6.762 0 3.644-3.17 6.668-7.193 7.02h-75.095c-4.39 0-7.98 3.174-7.98 7.056 0 3.883 3.591 7.058 7.98 7.058H142.808c.26.025.523.035.79.035h25.282c4.023.354 7.193 3.375 7.193 7.021 0 3.882-3.59 7.061-7.979 7.061h-41.348c-4.389 0-7.98 3.174-7.98 7.057 0 3.878 3.592 7.057 7.98 7.057h22.149a9.426 9.426 0 0 0 1.618.144h34.783c4.39 0 7.983 3.178 7.983 7.059 0 3.646-3.174 6.669-7.198 7.021h-52.42c-4.388 0-7.981 3.174-7.981 7.056 0 3.88 3.594 7.057 7.981 7.057h38.735c.259.022.522.036.79.036h2.609c4.021.353 7.192 3.374 7.192 7.021 0 3.184-2.42 5.89-5.713 6.762h-73.202c-4.389 0-7.982 3.173-7.982 7.052 0 3.883 3.594 7.059 7.982 7.059h4.648a8.805 8.805 0 0 0 2.268.297h30.135c3.293.87 5.713 3.577 5.713 6.762 0 3.879-3.591 7.057-7.98 7.057h-12.111c-4.389 0-7.98 3.174-7.98 7.057 0 3.881 3.592 7.056 7.98 7.056l76.252.003c4.023.351 7.191 3.372 7.191 7.019 0 3.88-3.59 7.059-7.979 7.059l-41.346-.002h-22.675c-.21 0-.417.013-.624.026h-17.766c-4.389 0-7.98 3.174-7.98 7.06 0 3.879 3.592 7.056 7.98 7.056h41.348c4.389 0 7.979 3.178 7.979 7.057 0 3.88-3.59 7.057-7.979 7.057H127.21a151 151 0 0 0 36.903 14.113 152.462 152.462 0 0 0 35.403 4.154c12.189 0 24.041-1.445 35.4-4.154a150.585 150.585 0 0 0 12.691-3.618 6.372 6.372 0 0 0 1.021-3.438c0-3.881-3.591-7.057-7.979-7.057h-12.112c-4.39 0-7.979-3.177-7.979-7.056 0-3.88 3.59-7.056 7.979-7.056h34.785c.221 0 .438-.018.654-.027h17.735c4.39 0 7.982-3.176 7.982-7.063 0-3.879-3.593-7.052-7.982-7.052h-12.112c-4.387 0-7.979-3.179-7.979-7.059 0-3.646 3.17-6.668 7.192-7.019h1.457c.263 0 .525-.014.785-.038h33.33c4.391 0 7.981-3.175 7.981-7.057 0-3.882-3.591-7.058-7.981-7.058H205.46c-4.023-.352-7.193-3.371-7.193-7.02 0-3.185 2.42-5.891 5.713-6.762h50.531c4.39 0 7.979-3.176 7.979-7.059 0-3.879-3.59-7.051-7.979-7.051h-4.648a8.846 8.846 0 0 0-2.271-.298h-7.46c-3.295-.872-5.714-3.578-5.714-6.762 0-3.646 3.17-6.668 7.194-7.021h75.094c4.389 0 7.982-3.176 7.982-7.055 0-3.887-3.594-7.059-7.982-7.059h-38.735a8.575 8.575 0 0 0-.788-.035h-25.284c-4.023-.353-7.193-3.376-7.193-7.021 0-3.881 3.588-7.059 7.979-7.059l41.348.002c4.39 0 7.981-3.176 7.981-7.059 0-3.879-3.592-7.055-7.981-7.055l-22.149-.002a9.143 9.143 0 0 0-1.618-.144h-34.781c-4.391 0-7.982-3.179-7.982-7.061 0-3.646 3.17-6.667 7.193-7.021h52.422c4.391 0 7.98-3.172 7.98-7.057 0-3.88-3.59-7.055-7.98-7.055h-38.734a8.987 8.987 0 0 0-.79-.037h-2.61c-4.021-.352-7.193-3.376-7.193-7.02 0-3.184 2.42-5.89 5.716-6.762h60.88c.789 0 1.549-.106 2.271-.295h3.135c4.391 0 7.979-3.178 7.979-7.057 0-3.882-3.588-7.057-7.979-7.057h-42.457c-3.295-.869-5.714-3.576-5.714-6.762 0-3.88 3.593-7.055 7.979-7.055h12.112c4.391 0 7.982-3.177 7.982-7.06 0-3.88-3.592-7.057-7.982-7.057h-76.249c-4.022-.353-7.195-3.375-7.195-7.018 0-3.499 2.926-6.421 6.721-6.96h58.334c.43 0 .851-.041 1.262-.101h5.686c4.39 0 7.979-3.174 7.979-7.056 0-3.883-3.589-7.053-7.979-7.053h-42.984c-3.799-.541-6.728-3.46-6.728-6.965 0-3.877 3.59-7.055 7.979-7.055h12.112c4.389 0 7.979-3.176 7.979-7.056a6.373 6.373 0 0 0-1.021-3.439 151.448 151.448 0 0 0-12.691-3.618 152.382 152.382 0 0 0-35.4-4.154 152.418 152.418 0 0 0-35.405 4.154Z"/><path fill="#EA7F4E" d="M204.902 217.322a6.634 6.634 0 1 0 0-13.268 6.634 6.634 0 0 0 0 13.268ZM164.231 104.398a6.633 6.633 0 1 0 0-13.267 6.633 6.633 0 0 0 0 13.267Z"/><path fill="#EE944F" d="M307.876 174.056a6.634 6.634 0 1 0 0-13.268 6.634 6.634 0 0 0 0 13.268Z"/><path fill="#F3AA4F" d="M244.167 288.272a6.894 6.894 0 1 1 0 13.787h-16.625a6.893 6.893 0 0 1-6.894-6.894 6.891 6.891 0 0 1 6.894-6.893h16.625Z"/><path fill="#EA7F4E" d="M218.505 147.003a6.894 6.894 0 0 1 0 13.786h-16.623a6.893 6.893 0 1 1 0-13.786h16.623Z"/></svg>