<svg xmlns="http://www.w3.org/2000/svg" xml:space="preserve" id="Layer_1" version="1.1" viewBox="0 0 512 512"><path d="m155.281 361.951-83.844 83.844c-4.188 4.156-4.188 10.922 0 15.078 4.156 4.172 10.906 4.172 15.062 0l83.844-83.828-15.062-15.094zM440.375 445.795l-83.812-83.844-15.094 15.094 83.844 83.828c4.156 4.172 10.906 4.172 15.062 0 4.187-4.156 4.187-10.922 0-15.078zM266.688 453.326v-90.984h-21.344v91c0 2.719 1.031 5.453 3.125 7.531 4.156 4.172 10.906 4.172 15.094 0a10.715 10.715 0 0 0 3.125-7.547z" style="fill:#434a54"/><path d="M416 314.67H96l42.688 64h234.656z" style="fill:#ccd1d9"/><path d="M105.125 282.67c-6.031-17.062 307.812-17.062 301.781 0h22.469a182.083 182.083 0 0 0 7.969-53.328c0-100.156-81.188-181.344-181.344-181.344-100.125 0-181.312 81.188-181.312 181.344 0 18.562 2.781 36.469 7.969 53.328h22.468z" style="fill:#f6bb42"/><path d="M512 282.67c0 29.453-23.875 53.328-53.344 53.328H53.344C23.875 335.998 0 312.123 0 282.67c0-29.453 23.875-53.328 53.344-53.328h405.312c29.469 0 53.344 23.875 53.344 53.328z" style="fill:#e6e9ed"/><path d="M138.688 282.67c0 5.891-4.781 10.672-10.688 10.672-5.875 0-10.656-4.781-10.656-10.672s4.781-10.672 10.656-10.672c5.906 0 10.688 4.781 10.688 10.672zM224 282.67c0 5.891-4.75 10.672-10.656 10.672-5.875 0-10.656-4.781-10.656-10.672s4.781-10.672 10.656-10.672c5.906 0 10.656 4.781 10.656 10.672zM309.344 282.67c0 5.891-4.781 10.672-10.656 10.672-5.906 0-10.688-4.781-10.688-10.672s4.781-10.672 10.688-10.672c5.874 0 10.656 4.781 10.656 10.672zM394.688 282.67c0 5.891-4.781 10.672-10.688 10.672-5.875 0-10.656-4.781-10.656-10.672s4.781-10.672 10.656-10.672c5.906 0 10.688 4.781 10.688 10.672z"/><path d="M256 90.186c-5.875 0-10.656 4.766-10.656 10.672 0 5.891 4.781 10.656 10.656 10.656 31.469 0 61.062 12.266 83.312 34.516s34.531 51.828 34.531 83.312h21.312c.001-76.86-62.28-139.156-139.155-139.156z" style="fill:#ffce54"/><path d="M181.34 336h21.344v42.672H181.34zM245.34 336h21.344v42.672H245.34zM309.34 336h21.344v42.672H309.34z" style="fill:#aab2bd"/></svg>