<svg xmlns="http://www.w3.org/2000/svg" fill="none" viewBox="0 0 378 358"><path fill="#1D1D1B" d="M57.125 153c0-5.25-18.75-21.375-22.375-21.875a9.865 9.865 0 0 1-9.272-6.442 9.878 9.878 0 0 1-.603-3.933c0-8.375-2.625-56.25 62.5-93.25S207.125-2.75 229.5 17s6.25 26.125 33.875 35 67.25 7.25 90.625 51 31.75 80.75 12.5 121.375-37.5 38.5-47.875 60.875-25 65.125-42.75 70.875-51.5-9.375-62.5-10.375a262.433 262.433 0 0 0-47.375 1.5c-21.875 2.125-22.875 12.5-41.125 3.125S94.125 307.125 71.25 303s-50 0-61.5-31.75-12.5-81.75 1-89.625S56.625 161.875 57.125 153Z"/><path fill="#E6E4DA" d="M26.875 196C33 189.875 73.75 177.75 80 161.125a37.5 37.5 0 0 0-14-38.375c-6.25-4.125-13.625-7.75-12.5-15.125a89.875 89.875 0 0 1 64-69.75c54.75-18.75 75-22.375 95.875-1.5S235.25 69.625 265.5 79s48.875 4.75 65 30.25 27.125 65.625 18.75 92.75-18.125 38.5-26.5 44a85.25 85.25 0 0 0-22.375 19.75 57.97 57.97 0 0 0-4.25 9.375 213.73 213.73 0 0 0-18.75-33.375c-2.5 0-9.875 0-7.75 3.75S289.875 280.875 291 285a111.515 111.515 0 0 1-16.125 42.25c-6.875 7.25-25.625 6.75-42.25 1.5a93.38 93.38 0 0 0-45.25-5.75c-20.375 2.125-34.375 12.5-50 3.125s-25-33.25-46.875-40-44.375-4.75-56.25-24A105.75 105.75 0 0 1 26.875 196Z"/><path fill="#1D1D1B" d="M50.375 199.375a6.004 6.004 0 0 1 5.509-.9 5.996 5.996 0 0 1 3.866 4.025 79.998 79.998 0 0 0 0 29.625c4.125 14.125 12.5 20.375 9.875 24s-9.875 7.25-13.5 3.625a62.502 62.502 0 0 1-12.5-30.75 50 50 0 0 1 6.75-29.625ZM169.125 68.625a33 33 0 0 1 50 36.5C212.25 133.75 167.5 154 150.875 129.5s-4.75-49.375 18.25-60.875Z"/><path fill="#fff" d="M174.375 81.125a22.749 22.749 0 0 1 34.125 25c-4.75 19.75-35.5 33.75-47 16.875a27.87 27.87 0 0 1-3.729-24.063 27.882 27.882 0 0 1 16.604-17.812Z"/><path fill="#1D1D1B" d="M222.25 256.125c2.75 1.25 5.125-6.75 1-11a56.126 56.126 0 0 0-47.375-3.625C157.125 249.875 140.5 279 154 295.125a51.88 51.88 0 0 0 42.125 18.75c8.875 0 23-6.75 18.75-10.875S179 296.25 185.75 278s25.5-27.125 36.5-21.875ZM318.625 149.375c-3.75-2.625-36-12.5-45.375 14s-10.375 37.5 1 47.375a36.507 36.507 0 0 0 33.375 8.375c4.125-2.625 3.625-10.375 1-11.5s-22.375-8.25-16.125-25a47.5 47.5 0 0 1 22.375-23.5 13.75 13.75 0 0 0 3.75-9.75ZM292.5 231.625c-2.875-2.875 7.375-4.625 8.875-2.625s7.875 12.5 4.75 16.75-5.25 7.75-7.375 5.125a175.876 175.876 0 0 1-6.25-19.25ZM259.75 254.5a90.38 90.38 0 0 1 18.75 33.875c-1.125 5.25 0 11-4.75 8.375a143.394 143.394 0 0 1-20.25-33.375c-1.125-3.625 4.125-8.25 6.25-8.875ZM200.875 168.125c3-3 4.625-6.25 7.75-3.125s20.875 38.5 17.25 42.625-3.625 8.375-7.25 4.25a187.533 187.533 0 0 1-17.75-43.75ZM224.875 154c-2.125-4 3.625-6.75 6.75-5.125s18.75 37.5 15.125 40-4.75 7.875-7.875 3.75a400.13 400.13 0 0 1-14-38.625ZM241 127c1.25-3.125 7.75-8.375 10.375-5.75a106.992 106.992 0 0 1 13.5 33.25c-1 4.25-7.25 7.375-7.25 7.375A237.419 237.419 0 0 1 241 127ZM263.875 102.5s3.625-5.75 6.75-4.75a36.129 36.129 0 0 1 11 19.875c-1.125 3.625 0 6.75-4.75 5.125s-12-18.75-13-20.25Z"/></svg>