<svg xmlns="http://www.w3.org/2000/svg" fill="none" viewBox="0 0 800 800"><path fill="#1D1D1B" d="M642.625 468.25c-10.875 0-19.125 12.5-21.875 12.5-5.125 1.125-11.875 0-19.75 0a40.509 40.509 0 0 0-32.75 11.375c-11.5 12.5-17.25 67.25-1.625 80.25s40.625 7.25 50 5.75 12.5 2.625 23.375 3.125a53.378 53.378 0 0 0 45.375-25c11.5-19.875 1.5-54.25-4.125-67.25a48.378 48.378 0 0 0-38.625-20.75ZM231.75 240.125c25 7.875 63.5-2.5 85.875-4.125s59.375 6.75 76.625 5.75 40.125-24 47.375-62.5-6.25-87.5-42.125-100-79.25 7.75-99 15-42 5.75-72.875 20.875-30.25 31.875-30.75 50 10.375 67.25 34.875 75Zm471.875-31.75c-22.375-29.625-70.375-13.5-79.75-10.875s-35-2.5-46.875 6.75C539.5 233.375 548.875 285 550.5 298a31.627 31.627 0 0 0 27.125 25c11.375 1 45.25 16.125 63.5 20.25s50 2.625 62.5-17.125 22.375-88 0-117.75ZM483.25 335.5c-29.625-17.75-48.875-50-88.5-53.125s-66.125 19.5-100 24c-47.875 6.25-89.625 12.5-122.875 39a142 142 0 0 0-50 101.625 62.508 62.508 0 0 0 3.405 30.452 62.513 62.513 0 0 0 17.47 25.173c9.875 9.375-1.625 28.125-3.125 43.75a142.372 142.372 0 0 0 48.875 98.5c36 27.125 55.75 25 87.5 25s44.75 6.75 93.75 15.625 62.5 2.125 98.5-30.75 19.25-69.25 22.375-76 19.25-15.125 33.875-31.75 25-70.875 20.75-108.375-32.75-85.375-62-103.125Z"/><path fill="#E6E4DA" d="M264.5 119.375a45.377 45.377 0 0 0 40.125 21.875 44.624 44.624 0 0 0 38.625-29.75c3.625-8.875 2-15.625 3.625-15.625s35.875-11.375 53.625 11.5a89.871 89.871 0 0 1 15.125 78.125C407.75 206.375 389 222 378.125 222a467.174 467.174 0 0 0-82.375-5.25c-34.875 3.125-40.625 5.75-47.375 2.625a80.623 80.623 0 0 1-25-43.25 55.868 55.868 0 0 1 11.5-44.75 160.787 160.787 0 0 1 29.625-12Z"/><path fill="#E6E4DA" d="M280.75 114.625c-.625-2.5 45.75-15.625 47.375-12.5a29.505 29.505 0 0 1-19.875 26.125 24.002 24.002 0 0 1-27.5-13.625Z"/><path fill="#1D1D1B" d="M359.375 109.5c-.875-2.75 7.75-4.25 10.375-2.125s15.625 32.75 12.5 35.375-9.375 5.25-11.375 1.625-11-33.375-11.5-34.875ZM383.875 111c-.75-2 5.625-2.125 9.375 1.625s10.875 20.75 7.75 22.875-5.25 3.625-7.75 1.5a136.28 136.28 0 0 1-9.375-26ZM260.875 169.375C275 161.25 300 164.125 300 187.5s-34.875 27.125-43.75 17.75a21.877 21.877 0 0 1-3.352-28.983 21.886 21.886 0 0 1 7.977-6.892Z"/><path fill="#fff" d="M269.75 178.25c6-3.625 17.75 1 17.75 8.75s-12.5 10.5-17.75 8.375a9.747 9.747 0 0 1-3.719-13.542 9.747 9.747 0 0 1 3.719-3.583Z"/><path fill="#1D1D1B" d="M350 163.125c15.625-9.75 48.875 0 45.25 22.375s-28.125 26.5-41.625 25-45.375-21.375-3.625-47.375Z"/><path fill="#fff" d="M356.25 172c5.5-2.75 25-2.625 25 10.875s-17.75 18.75-29.125 15.625-11-19.25 4.125-26.5Z"/><path fill="#E6E4DA" d="M590.625 222.5c4.375-4.25 19.25-5.25 20.25-2.125s3.625 25 18.25 33.375a33.254 33.254 0 0 0 32.25 4.625c8.875-3.125 15.125-7.75 14.125-9.875s-4.125-8.375-6.25-8.375-20.875 13.625-33.375 3.125-7.75-25-2-27 41.125-7.375 50 4.625 7.75 87.5 2.625 83.875-11-20.875-14.125-20.875-9.875 2.625-8.375 6.25 17.25 21.375 14.125 25-8.875 7.875-11.5 5.75-8.25-27.625-13.5-27.125-12.5 3.125-10.375 6.25 8.25 18.25 5.125 18.75-26.5-7.25-37.5-8.25-27.125 1.5-32.75-13.625-5.75-56.125 13-74.375Z"/><path fill="#1D1D1B" d="M605.125 265.75a22.75 22.75 0 0 1 29.25 17.625c0 12.5-22.375 22.375-34.375 13.625s-14.125-23.5 5.125-31.25Z"/><path fill="#fff" d="M610.125 277a7.495 7.495 0 0 1 8.404 2.855 7.493 7.493 0 0 1 1.221 2.895c0 4.375-7.375 7.375-11.375 4.5s-4.625-7.75 1.75-10.25Z"/><path fill="#E6E4DA" d="M582.25 501.625c1.75-2.125 11.5-4.625 11-2.125s-7.375 14.125 6.25 19.875a44 44 0 0 1 17.625 11.375s2.625 26.625-1.5 26.625-7.375 1-7.875-1.625 0-18.75-2.625-19.25-8.75-3.125-9.375 0 1.625 23.5-1 21.875-6.25 1.625-10.875-5.75-6.25-45.25-1.625-51ZM650 494.875c1.5-1 6.75-3.125 9.375-1a50.001 50.001 0 0 1 8.25 35.375c-2 18.75-4.625 22.875-8.25 24s-3.125 3.125-3.75 1 0-18.25-3.125-18.75-9.875 0-10.375 1.5 2.625 22.5-1.5 21.875-11 0-11.5-3.125a97.11 97.11 0 0 1-1-25c1.5 0 19.25-1.125 22.875-12.5a38.996 38.996 0 0 0-1-23.375Z"/><path fill="#fff" d="M615.625 494.875c17.25-2.125 25 9.375 23.375 16.625s-10.875 12.5-23.375 5.25-13-20.375 0-21.875Z"/><path fill="#E6E4DA" d="M290.625 325c18.125-2.125 39-12.5 68.75-15.625a104.002 104.002 0 0 1 81.25 20.875 314.49 314.49 0 0 1 62.5 60.375 117.379 117.379 0 0 1 17.625 99c-9.875 38.5-14 46.375-26.5 55.75S466.625 568.75 466.125 574s12.5 45.375-12.5 67.75-43.75 29.625-56.75 28.625-56.25-17.25-100-17.75S226.5 650 206.75 635a145.5 145.5 0 0 1-41.125-66.75c0-9.375-2.625-18.125 1-19.75s40.125-7.75 51-16.625 8.875-28.625 0-42.25S202 465.125 187.5 462.5s-34.375 14.625-34.375 14.625a46.626 46.626 0 0 1-6.875-34.375c3.75-17.75 13.125-58.875 41.25-84.375S259.875 328.25 290.625 325Z"/><path fill="#1D1D1B" d="M214.5 359.5c3.5-2.375 13.625 3.625 11.5 7.25a197.264 197.264 0 0 0-25 33.375c-4.625 12.5-2 19.75-6.75 21.875s-11.5 7.75-12.5 0a66.744 66.744 0 0 1 8.875-32.875A118.995 118.995 0 0 1 214.5 359.5ZM357.75 336c24-6.25 44.875 7.25 58.375 15.625a73.509 73.509 0 0 0 30.25 14.125c10.875 1.5 18.75 4.125 20.75 12.5s0 29.125-6.25 31.75-32.25 3.125-44.75 13.5-16.625 21.375-33.875 25-35.375 6.75-54.625-8.875S290.125 353.75 357.75 336Z"/><path fill="#fff" d="M362.5 348.5a69.499 69.499 0 0 1 41.125 10.375c14 8.375 10.875 10 25 13.625s23.375 5.125 25 10.875 4.625 16.125-2.125 18.25-31.25 1.625-43.25 9.875-20.75 28.625-46.875 26a42.247 42.247 0 0 1-36.375-40 46.126 46.126 0 0 1 37.5-49Z"/><path fill="#1D1D1B" d="M444.75 462.5a32.501 32.501 0 0 1 45.375 40.625c-11.5 31.875-45.375 35.5-60.5 17.75A39.124 39.124 0 0 1 444.75 462.5Z"/><path fill="#fff" d="M449.25 473.875a20.63 20.63 0 0 1 23.709 2.815 20.627 20.627 0 0 1 5.166 23.31 23.007 23.007 0 0 1-15.915 16.976 22.994 22.994 0 0 1-22.585-5.601 25.009 25.009 0 0 1-4.079-21.032 24.984 24.984 0 0 1 4.999-9.776 24.988 24.988 0 0 1 8.705-6.692ZM164 489.125c2.125-1.5 12.5-14 26.125-8.875s25 35.5 20.25 39.125a157.736 157.736 0 0 1-40.125 14c-1-1.5 4.75-21.375 2.625-28.125A74.999 74.999 0 0 0 164 489.125Z"/><path fill="#1D1D1B" d="M309.375 536.5c5.5-2.375 45.25-4.125 52.625 2.625s10.875 27.625 27.5 36 25 14 25 28.625a28.125 28.125 0 0 1-25 26c-9.875 0-36.375-11.5-57.25-11.5a105.009 105.009 0 0 1-48.375-7.25 36.004 36.004 0 0 1-11-33.875c4.125-6.25 16.125-31.75 36.5-40.625Z"/><path fill="#fff" d="M318.25 549c8.5-3.5 32.75-3.625 36.375 2.625s8.375 20.875 16.125 25S403.125 591.25 402.625 600s-11.5 19.875-13.125 18.75a103.119 103.119 0 0 0-51.5-12.5c-27.625 1.125-32.25 4.75-40.125 0s-14-15.625-11.5-21.875A110.497 110.497 0 0 1 318.25 549Z"/><path fill="#1D1D1B" d="M256.75 465.75a7.005 7.005 0 0 1 9.92-2.809 7.011 7.011 0 0 1 2.58 2.809c2.625 5.75 14.625 62.5 11 64.625s-7.375 6.75-10 2.625a403.867 403.867 0 0 1-13.5-67.25ZM286.375 464.625a7.006 7.006 0 0 1 5.25-2.37 6.993 6.993 0 0 1 5.25 2.37c1.5 3.125 11.375 47.5 6.75 49s-8.875 4.75-11-1-9.375-43.25-6.25-48ZM317.625 470.375c1.25-3.5 8.875-1.5 10.5 1a236.048 236.048 0 0 1 4.625 42.25c-1 2.125-8.875 2.625-10.375-1a321.232 321.232 0 0 1-4.75-42.25ZM347.375 476.625a5.744 5.744 0 0 1 4.438-2.093 5.747 5.747 0 0 1 4.437 2.093c3.125 3.125 13.5 42.75 7.25 43.25s-9.375 2.625-12.5-4.75a115.009 115.009 0 0 1-3.625-38.5ZM377 471.375c2.25-2.125 9.375-5.125 10.5 1.125s1.5 16.625-2.125 18.25-7.75 5.625-9.375 0a41.495 41.495 0 0 1 1-19.375ZM200 565.125c0-3.875 8.375-4.625 9.875 0s6.25 17.75 3.625 18.75a8.873 8.873 0 0 1-8.25 1.125c-3.25-1.625-5.25-15.125-5.25-19.875Z"/></svg>