<svg xmlns="http://www.w3.org/2000/svg" fill="none" viewBox="0 0 159 159"><path fill="#E4BE87" d="M80.295 11.981c.454 1.967 2.648 3.156 4.875 2.641l20.969-4.852c2.227-.516 4.419.674 4.874 2.642.457 1.97-.991 4.001-3.219 4.515l-9.011 2.086c-.102.031-.205.063-.312.087l-11.5 2.661-20.967 4.853c-2.225.515-3.673 2.548-3.22 4.515.428 1.85 2.392 3.01 4.473 2.717l38.669-8.947c2.227-.518 4.421.673 4.877 2.641.455 1.969-.994 4.002-3.22 4.516l-6.143 1.422c-2.226.516-3.674 2.547-3.22 4.516.374 1.614 1.919 2.701 3.691 2.757l15.282-3.535c.4-.094.797-.13 1.187-.116l2.355-.546c2.227-.515 4.42.675 4.877 2.642.456 1.969-.993 4-3.221 4.516l-37.124 8.59c-1.565.828-2.477 2.484-2.104 4.1.428 1.85 2.392 3.01 4.474 2.715l1.322-.305c.135-.032.27-.056.403-.074l19.645-4.547c2.227-.516 4.421.674 4.876 2.643.456 1.969-.993 4-3.219 4.516L84.08 67.502c-2 .65-3.254 2.555-2.826 4.404.455 1.967 2.65 3.156 4.876 2.643l17.641-4.083c.281-.065.562-.103.837-.116l11.232-2.599c2.226-.515 4.42.675 4.875 2.642.456 1.969-.993 4-3.219 4.516l-20.97 4.852c-2.226.516-3.672 2.549-3.217 4.518.429 1.848 2.39 3.01 4.473 2.715l12.822-2.968c.135-.03.269-.056.404-.074l8.145-1.884 11.498-2.661c2.226-.516 4.42.673 4.876 2.642.454 1.969-.994 4.002-3.22 4.516l-38.082 8.813c-2 .652-3.253 2.557-2.825 4.404.373 1.614 1.918 2.703 3.69 2.758l10.033-2.321c2.227-.515 4.42.675 4.877 2.643.454 1.968-.995 3.998-3.222 4.515l-1.591.367a4.634 4.634 0 0 1-1.115.418l-19.378 4.483c-1.565.827-2.476 2.484-2.103 4.099.429 1.851 2.39 3.01 4.473 2.717l50.166-11.609c2.228-.516 4.422.674 4.877 2.643.455 1.969-.992 3.999-3.22 4.516l-16.902 3.91c-.13.043-.26.08-.396.11l-.738.171c-1.999.65-3.252 2.557-2.823 4.404.41 1.775 2.237 2.914 4.225 2.742l10.304-2.386c2.227-.515 4.419.675 4.877 2.644.455 1.967-.995 3.998-3.22 4.516l-2.889.667a4.545 4.545 0 0 1-.622.195l-18.081 4.184c-1.863.72-3.007 2.544-2.595 4.32.455 1.968 2.648 3.157 4.874 2.642l17.211-3.982c21.057-18.611 31.508-47.878 24.728-77.183-6.78-29.301-29.027-51.003-56.119-58.474L83.51 7.474c-2.22.505-3.67 2.539-3.215 4.507Z"/><path fill="#B77B47" d="m74.587 152.45 6.142-1.422c2.229-.514 3.676-2.547 3.222-4.514-.413-1.778-2.241-2.914-4.23-2.74l-21.797 5.043c-2.228.516-4.421-.672-4.877-2.641-.454-1.97.993-4 3.22-4.516l2.883-.668c.202-.077.41-.146.628-.195l29.584-6.848c1.86-.719 3-2.543 2.592-4.318-.428-1.848-2.393-3.008-4.474-2.715l-38.67 8.948c-2.226.515-4.42-.675-4.873-2.642-.457-1.969.991-4.002 3.218-4.518l6.142-1.42c2.227-.515 3.676-2.546 3.22-4.514-.373-1.616-1.918-2.705-3.691-2.761l-21.53 4.983c-2.227.516-4.42-.674-4.875-2.643-.455-1.968.992-3.998 3.218-4.514l1.59-.369a4.67 4.67 0 0 1 1.117-.416l30.875-7.145c1.569-.827 2.479-2.484 2.105-4.098-.43-1.849-2.391-3.012-4.473-2.717l-1.322.307a5.336 5.336 0 0 1-.406.074l-19.643 4.544c-2.227.517-4.421-.673-4.876-2.64-.456-1.971.993-4.002 3.22-4.518l26.583-6.151c2-.65 3.254-2.554 2.827-4.403-.457-1.969-2.651-3.158-4.878-2.645l-17.641 4.083c-.28.065-.561.104-.836.115l-11.232 2.599c-2.23.516-4.421-.674-4.876-2.641-.456-1.969.994-4 3.219-4.516l20.968-4.852c2.227-.516 3.674-2.548 3.219-4.516-.427-1.85-2.39-3.012-4.471-2.718L37.886 78.18a4.11 4.11 0 0 1-.405.075l-8.145 1.884-11.5 2.662c-2.224.514-4.418-.674-4.873-2.643-.456-1.969.994-4 3.218-4.516l38.084-8.813c1.998-.65 3.252-2.555 2.823-4.404-.373-1.615-1.918-2.702-3.691-2.758l-3.782.875a4.523 4.523 0 0 1-1.187.115l-2.357.547c-2.226.514-4.418-.674-4.875-2.643-.455-1.967.992-3.998 3.218-4.514l25.628-5.931c1.568-.829 2.478-2.483 2.103-4.099-.428-1.852-2.391-3.01-4.471-2.717l-50.17 11.609c-2.225.516-4.42-.674-4.874-2.643-.455-1.969.993-4 3.218-4.515l16.904-3.912c.129-.042.262-.079.395-.11l.738-.172c1.998-.65 3.252-2.555 2.823-4.403-.454-1.968-2.65-3.157-4.875-2.644l-6.142 1.422c-2.227.516-4.421-.673-4.876-2.641-.455-1.969.994-4.001 3.22-4.516l8.993-2.081c.108-.033.217-.066.328-.092l17.642-4.083c2.227-.515 3.674-2.547 3.219-4.514-.454-1.969-2.648-3.158-4.875-2.643l-6.143 1.42c-2.225.516-4.418-.673-4.876-2.641a3.339 3.339 0 0 1 .115-1.863C10.178 29.568-5.216 63.571 2.663 97.623c7.881 34.052 36.647 57.835 69.632 60.954a3.325 3.325 0 0 1-.923-1.623c-.458-1.957.99-3.988 3.215-4.504Z"/><path fill="#D7AD78" d="M115.057 150.626a78.492 78.492 0 0 0 17.06-11.488l-17.211 3.982c-2.226.516-4.419-.674-4.874-2.642-.412-1.776.731-3.601 2.595-4.32l18.081-4.184c.214-.05.423-.118.622-.195l2.889-.667c2.225-.518 3.675-2.549 3.22-4.516-.458-1.969-2.65-3.158-4.877-2.644l-10.304 2.386c-1.987.172-3.814-.967-4.225-2.742-.429-1.848.824-3.754 2.823-4.404l.738-.171c.136-.03.266-.067.396-.11l16.902-3.91c2.228-.517 3.675-2.547 3.22-4.516-.455-1.969-2.649-3.158-4.877-2.643l-50.166 11.609c-2.082.293-4.044-.866-4.473-2.717-.373-1.614.537-3.271 2.103-4.099l19.378-4.483c.4-.094.772-.236 1.115-.418l1.591-.367c2.227-.517 3.676-2.547 3.222-4.515-.457-1.968-2.65-3.157-4.877-2.643l-10.032 2.321c-1.773-.055-3.318-1.144-3.691-2.758-.428-1.848.826-3.752 2.825-4.404l38.082-8.813c2.226-.514 3.674-2.547 3.22-4.516-.456-1.969-2.65-3.157-4.876-2.642l-11.498 2.661-8.145 1.884c-.136.019-.27.044-.404.074l-12.822 2.968c-2.082.295-4.044-.867-4.473-2.715-.455-1.969.99-4.002 3.218-4.518l20.969-4.852c2.226-.516 3.675-2.547 3.219-4.516-.455-1.967-2.649-3.156-4.875-2.642l-11.232 2.599a4.798 4.798 0 0 0-.837.116l-17.641 4.083c-2.226.514-4.421-.676-4.876-2.643-.428-1.85.826-3.754 2.826-4.404l26.584-6.152c2.226-.516 3.675-2.547 3.219-4.516-.455-1.969-2.649-3.158-4.876-2.643l-19.645 4.547c-.133.019-.27.042-.403.074l-1.322.305c-2.082.295-4.046-.865-4.474-2.715-.373-1.615.538-3.271 2.104-4.1l37.124-8.59c2.228-.516 3.677-2.547 3.221-4.516-.457-1.967-2.65-3.156-4.877-2.642l-2.355.546a4.475 4.475 0 0 0-1.187.116l-15.282 3.535c-1.772-.056-3.317-1.143-3.69-2.757-.455-1.969.993-4 3.219-4.516l6.143-1.422c2.226-.514 3.675-2.547 3.22-4.516-.456-1.968-2.65-3.158-4.877-2.641l-38.669 8.947c-2.081.293-4.045-.867-4.473-2.717-.453-1.967.995-4 3.22-4.515l20.968-4.853 11.499-2.661c.106-.023.21-.056.312-.087l9.011-2.086c2.228-.514 3.676-2.545 3.219-4.515-.455-1.968-2.647-3.157-4.874-2.642l-20.97 4.852c-2.226.516-4.42-.674-4.874-2.641-.455-1.969.995-4.002 3.219-4.517l17.211-3.983A78.494 78.494 0 0 0 80.359.646a79.36 79.36 0 0 0-18.44 2.047A79.416 79.416 0 0 0 38.44 12.28a3.339 3.339 0 0 0-.115 1.863c.458 1.968 2.65 3.156 4.876 2.641l6.143-1.42c2.227-.516 4.42.674 4.875 2.643.455 1.967-.992 3.999-3.22 4.514l-17.641 4.083c-.111.025-.22.059-.328.092l-8.993 2.081c-2.226.515-3.675 2.547-3.22 4.516.455 1.968 2.649 3.156 4.876 2.641l6.142-1.422c2.226-.514 4.421.676 4.875 2.644.429 1.849-.825 3.753-2.823 4.403l-.738.172a4.802 4.802 0 0 0-.395.11L15.85 45.753c-2.225.515-3.673 2.546-3.218 4.515.455 1.969 2.649 3.158 4.875 2.643l50.169-11.609c2.08-.293 4.043.865 4.47 2.717.376 1.615-.533 3.27-2.102 4.099l-25.628 5.931c-2.226.516-3.673 2.547-3.218 4.514.457 1.969 2.649 3.156 4.875 2.643l2.357-.547c.388.014.785-.022 1.187-.115l3.782-.875c1.773.056 3.318 1.143 3.691 2.758.429 1.85-.825 3.754-2.823 4.404l-38.084 8.813c-2.224.516-3.674 2.547-3.218 4.516.455 1.969 2.649 3.156 4.874 2.643l11.499-2.662 8.145-1.884c.136-.019.27-.043.405-.075l12.822-2.968c2.082-.294 4.044.868 4.471 2.718.455 1.968-.992 4-3.22 4.516L30.995 87.3c-2.225.516-3.675 2.547-3.219 4.516.455 1.967 2.647 3.156 4.876 2.641l11.232-2.599a4.59 4.59 0 0 0 .836-.115l17.64-4.083c2.228-.514 4.422.676 4.879 2.645.427 1.85-.827 3.753-2.827 4.403l-26.583 6.151c-2.227.516-3.676 2.547-3.22 4.518.455 1.967 2.649 3.156 4.876 2.64l19.643-4.544c.135-.021.271-.043.406-.074l1.322-.307c2.082-.295 4.044.868 4.473 2.717.373 1.613-.536 3.271-2.105 4.098l-30.875 7.145a4.67 4.67 0 0 0-1.116.416l-1.591.369c-2.226.516-3.673 2.546-3.218 4.514.456 1.969 2.648 3.158 4.875 2.643l21.53-4.983c1.773.056 3.318 1.145 3.69 2.761.457 1.968-.992 3.999-3.219 4.514l-6.142 1.42c-2.227.516-3.675 2.549-3.218 4.518.454 1.967 2.647 3.156 4.874 2.642l38.669-8.948c2.08-.293 4.046.867 4.474 2.715.409 1.775-.73 3.6-2.592 4.318l-29.584 6.848a4.585 4.585 0 0 0-.628.195l-2.883.668c-2.227.516-3.674 2.546-3.22 4.516.456 1.969 2.649 3.156 4.877 2.641l21.797-5.043c1.989-.174 3.817.962 4.23 2.74.454 1.967-.993 4-3.222 4.514l-6.142 1.422c-2.225.516-3.673 2.547-3.22 4.516.149.633.475 1.184.924 1.623a79.255 79.255 0 0 0 25.3-1.701 79.54 79.54 0 0 0 17.464-6.264Z"/><path fill="#E4BE87" d="M75.363 76.717a3.453 3.453 0 1 0 0-6.906 3.453 3.453 0 0 0 0 6.906ZM109.24 129.212a3.453 3.453 0 1 0 0-6.906 3.453 3.453 0 0 0 0 6.906Z"/><path fill="#D7AD78" d="M28.996 110.655a3.451 3.451 0 0 1-4.14-2.586 3.451 3.451 0 0 1 2.583-4.143 3.455 3.455 0 0 1 4.145 2.583 3.457 3.457 0 0 1-2.588 4.146Z"/><path fill="#B77B47" d="M46.346 38.528a3.59 3.59 0 0 1-1.617-6.992l8.432-1.952a3.587 3.587 0 0 1 4.303 2.688 3.587 3.587 0 0 1-2.686 4.305l-8.432 1.951Z"/><path fill="#E4BE87" d="M75.938 107.159a3.59 3.59 0 0 1-4.304-2.688 3.59 3.59 0 0 1 2.688-4.305l8.43-1.951a3.589 3.589 0 0 1 1.618 6.991l-8.432 1.953Z"/></svg>