<svg xmlns="http://www.w3.org/2000/svg" fill="none" viewBox="0 0 26 26"><path fill="#F2A200" d="M12.711 25.802c6.916 0 12.522-5.606 12.522-12.522S19.627.758 12.71.758.189 6.364.189 13.28s5.606 12.522 12.522 12.522Z"/><path fill="#DB9400" d="M13.698.849c-.184 0 8.41 2.666 7.123 13.557-1.287 10.89-12.82 10.385-12.82 10.385s13.693 5.376 16.955-10.156C26.519 3.835 13.837.849 13.698.849ZM5.068 16.936a1.132 1.132 0 1 0 0-2.264 1.132 1.132 0 0 0 0 2.264Z"/><path fill="#DB9400" d="M11.528 10.276a.666.666 0 1 0 0-1.332.666.666 0 0 0 0 1.332ZM15.058 14.139a.732.732 0 1 0 0-1.464.732.732 0 0 0 0 1.464Z"/></svg>