<svg xmlns="http://www.w3.org/2000/svg" fill="none" viewBox="0 0 134 134"><path fill="#DC2E75" d="M43.022 27.633c.98.982 2.693.877 3.802-.232L57.28 16.946c1.111-1.11 2.821-1.216 3.804-.236.981.983.877 2.695-.233 3.805l-4.494 4.492a2.896 2.896 0 0 1-.149.166l-5.733 5.733-10.456 10.456c-1.109 1.108-1.214 2.82-.233 3.801.924.922 2.49.885 3.595-.043l19.28-19.282c1.111-1.109 2.823-1.216 3.804-.233.981.981.877 2.692-.233 3.803l-3.062 3.063c-1.11 1.11-1.216 2.82-.234 3.803.804.805 2.101.877 3.155.264l7.62-7.62c.2-.2.417-.364.647-.497l1.176-1.177c1.11-1.109 2.822-1.214 3.803-.233.982.98.877 2.692-.233 3.803L60.59 49.326c-.61 1.051-.539 2.35.266 3.153.923.923 2.488.884 3.595-.044l.66-.66c.067-.066.138-.13.208-.189l9.795-9.795c1.11-1.11 2.822-1.216 3.804-.234.982.982.875 2.693-.235 3.803L65.43 58.616c-.93 1.106-.968 2.672-.046 3.598.98.98 2.693.874 3.804-.236l8.796-8.796c.142-.14.29-.263.447-.372l5.6-5.602c1.11-1.109 2.821-1.215 3.802-.232.983.98.878 2.691-.232 3.802L77.145 61.234c-1.11 1.11-1.217 2.82-.234 3.803.922.922 2.487.885 3.594-.043L86.9 58.6c.07-.068.137-.13.21-.19l4.061-4.063 5.734-5.733c1.11-1.109 2.82-1.215 3.803-.232.981.98.875 2.692-.234 3.803L81.484 71.172c-.93 1.106-.966 2.674-.044 3.594.805.807 2.102.88 3.154.266l5.003-5.002c1.11-1.11 2.821-1.216 3.803-.234.981.98.875 2.692-.234 3.803l-.794.792c-.132.231-.299.45-.498.65l-9.662 9.66c-.613 1.054-.54 2.35.266 3.155.922.922 2.487.885 3.594-.044l25.016-25.015c1.109-1.11 2.822-1.215 3.804-.234.98.982.875 2.691-.235 3.803l-8.428 8.43c-.061.07-.123.141-.191.207l-.367.37c-.928 1.104-.965 2.67-.044 3.592.886.886 2.364.884 3.461.061l5.137-5.138c1.11-1.109 2.822-1.215 3.804-.234.981.981.876 2.693-.234 3.803l-1.439 1.44a3.03 3.03 0 0 1-.293.341l-9.016 9.015c-.824 1.098-.825 2.577.061 3.463.98.981 2.691.877 3.8-.23l8.585-8.587c5.5-18.506.944-39.363-13.667-53.977-14.61-14.61-35.472-19.166-53.978-13.666l-8.584 8.584c-1.118 1.101-1.222 2.814-.242 3.793Z"/><path fill="#C21372" d="m90.795 111.578 3.063-3.063c1.108-1.109 1.214-2.822.233-3.803-.885-.885-2.366-.883-3.462-.059l-10.87 10.869c-1.11 1.111-2.819 1.217-3.8.234-.983-.982-.879-2.692.231-3.803l1.438-1.437c.088-.12.185-.235.293-.344l14.751-14.753c.823-1.095.826-2.574-.059-3.457-.923-.924-2.49-.887-3.596.044l-19.28 19.28c-1.11 1.109-2.823 1.217-3.804.234-.98-.98-.877-2.693.233-3.804l3.063-3.063c1.11-1.11 1.216-2.821.233-3.802-.805-.806-2.102-.88-3.153-.265l-10.737 10.735c-1.11 1.11-2.82 1.215-3.802.234-.98-.982-.877-2.693.232-3.803l.794-.793c.135-.23.301-.449.498-.648l15.397-15.396c.611-1.055.54-2.35-.266-3.154-.92-.922-2.489-.885-3.594.045l-.66.66a4.549 4.549 0 0 1-.208.19l-9.797 9.794c-1.11 1.111-2.819 1.215-3.8.234-.984-.98-.877-2.694.231-3.804l13.257-13.255c.928-1.107.966-2.673.043-3.596-.982-.98-2.69-.876-3.803.233l-8.796 8.798a3.3 3.3 0 0 1-.446.371l-5.602 5.6c-1.11 1.111-2.82 1.218-3.8.236-.984-.982-.878-2.693.231-3.803l10.456-10.457c1.11-1.11 1.215-2.822.233-3.804-.923-.92-2.487-.884-3.596.046l-6.393 6.393a3.078 3.078 0 0 1-.208.19l-4.063 4.063-5.733 5.733c-1.109 1.11-2.82 1.215-3.803.232-.98-.98-.876-2.692.233-3.803l18.99-18.989c.928-1.106.966-2.673.044-3.595-.806-.805-2.102-.877-3.155-.265L42.8 67.096a3.133 3.133 0 0 1-.647.498l-1.176 1.176c-1.11 1.11-2.82 1.216-3.803.232-.98-.98-.876-2.69.232-3.8l12.78-12.78c.61-1.052.54-2.348-.266-3.154-.923-.92-2.488-.883-3.595.045L21.308 74.327c-1.11 1.111-2.82 1.216-3.803.234-.982-.98-.876-2.69.232-3.803l8.43-8.428c.061-.07.123-.14.188-.208l.37-.368c.927-1.105.965-2.672.043-3.594-.98-.98-2.692-.877-3.804.234l-3.063 3.061c-1.109 1.11-2.82 1.217-3.802.236-.982-.983-.876-2.694.233-3.803l4.484-4.486c.052-.057.104-.117.158-.172l8.796-8.797c1.11-1.11 1.217-2.823.235-3.8-.982-.983-2.693-.88-3.803.23l-3.063 3.062c-1.11 1.111-2.82 1.217-3.803.234a2.267 2.267 0 0 1-.61-1.127C8.542 63.39 11.942 88.807 28.92 105.788c16.981 16.979 42.397 20.377 62.757 10.194a2.273 2.273 0 0 1-1.128-.61c-.969-.971-.864-2.684.246-3.794Z"/><path fill="#D91574" d="M113.719 95.793a54.022 54.022 0 0 0 5.764-12.902l-8.585 8.586c-1.108 1.108-2.819 1.213-3.8.231-.886-.886-.885-2.365-.061-3.463l9.016-9.015c.108-.107.205-.223.293-.342l1.439-1.439c1.11-1.109 1.216-2.82.234-3.803-.981-.98-2.693-.875-3.804.234l-5.137 5.138c-1.097.823-2.575.825-3.461-.06-.921-.924-.884-2.488.044-3.594l.367-.369a3.08 3.08 0 0 0 .191-.207l8.428-8.43c1.11-1.11 1.216-2.82.235-3.803-.981-.98-2.694-.877-3.804.234L86.062 87.804c-1.106.93-2.672.966-3.594.044-.806-.806-.879-2.102-.266-3.155l9.662-9.66c.199-.2.366-.419.498-.65l.794-.792c1.109-1.11 1.216-2.822.234-3.803-.981-.98-2.693-.876-3.803.234l-5.003 5.002c-1.053.613-2.35.541-3.154-.266-.922-.92-.886-2.487.044-3.594l18.989-18.988c1.109-1.11 1.216-2.822.234-3.803-.982-.982-2.693-.877-3.803.232l-5.734 5.733-4.062 4.062c-.072.061-.14.123-.209.191l-6.394 6.395c-1.106.928-2.672.965-3.594.043-.982-.982-.876-2.693.234-3.803L87.59 50.77c1.11-1.11 1.216-2.82.232-3.802-.98-.982-2.691-.877-3.803.232l-5.599 5.602a3.255 3.255 0 0 0-.447.372l-8.796 8.796c-1.11 1.11-2.823 1.215-3.804.236-.922-.926-.884-2.49.046-3.598l13.254-13.256c1.11-1.109 1.217-2.82.235-3.803-.982-.982-2.693-.877-3.804.234l-9.795 9.795c-.07.06-.141.123-.208.19l-.66.66c-1.106.927-2.672.966-3.595.043-.805-.805-.877-2.103-.266-3.153l18.513-18.512c1.11-1.11 1.216-2.822.233-3.803-.98-.98-2.692-.876-3.803.233l-1.176 1.177c-.23.133-.448.297-.647.496l-7.62 7.621c-1.055.613-2.352.541-3.155-.264-.981-.982-.877-2.693.234-3.803L66.22 29.4c1.11-1.11 1.215-2.82.233-3.803-.98-.982-2.692-.876-3.804.233L43.37 45.112c-1.105.928-2.671.965-3.595.043-.98-.98-.876-2.692.233-3.8l10.456-10.457 5.733-5.733c.054-.054.102-.109.149-.166l4.494-4.492c1.11-1.109 1.215-2.82.233-3.805-.982-.979-2.692-.875-3.804.236L46.814 27.393c-1.108 1.11-2.821 1.215-3.802.232-.98-.979-.876-2.692.231-3.8l8.584-8.585a54.015 54.015 0 0 0-12.901 5.765 54.61 54.61 0 0 0-20.199 22.028c.094.422.296.813.611 1.127.982.982 2.692.877 3.803-.234l3.063-3.063c1.109-1.109 2.82-1.213 3.803-.23.98.978.875 2.69-.235 3.801l-8.796 8.797c-.055.055-.106.115-.158.172l-4.484 4.486c-1.11 1.108-1.216 2.82-.233 3.803.98.98 2.692.874 3.802-.236l3.063-3.06c1.11-1.112 2.822-1.216 3.804-.235.922.922.884 2.488-.044 3.594l-.369.368a4.663 4.663 0 0 0-.19.208L17.74 70.76c-1.108 1.111-1.215 2.822-.232 3.803.98.981 2.69.877 3.803-.234l25.016-25.014c1.106-.928 2.672-.966 3.595-.045.805.807.876 2.103.266 3.154l-12.78 12.78c-1.108 1.108-1.214 2.82-.232 3.8.981.983 2.691.878 3.803-.232l1.176-1.176c.229-.133.449-.299.647-.498l1.887-1.888c1.054-.612 2.35-.54 3.155.265.922.922.884 2.488-.044 3.595l-18.99 18.99c-1.11 1.11-1.215 2.821-.233 3.802.982.982 2.693.877 3.803-.232l5.733-5.733 4.063-4.063c.071-.06.14-.123.208-.19l6.393-6.393c1.108-.93 2.673-.967 3.596-.046.98.981.876 2.693-.233 3.804L41.683 89.465c-1.11 1.11-1.216 2.82-.232 3.803.979.981 2.69.875 3.8-.236l5.603-5.6a3.24 3.24 0 0 0 .446-.37l8.796-8.799c1.11-1.109 2.82-1.215 3.803-.233.923.923.885 2.488-.043 3.596L50.599 94.881c-1.108 1.11-1.216 2.822-.232 3.804.98.98 2.69.877 3.8-.234l9.798-9.795c.07-.06.14-.123.208-.189l.66-.66c1.104-.93 2.673-.967 3.594-.045.805.805.877 2.1.266 3.154l-15.397 15.396a3.285 3.285 0 0 0-.498.648l-.794.793c-1.109 1.109-1.214 2.82-.232 3.803.98.98 2.69.876 3.802-.234l10.737-10.735c1.052-.615 2.349-.541 3.153.265.982.98.877 2.691-.233 3.802l-3.063 3.063c-1.11 1.11-1.215 2.823-.233 3.804.98.982 2.692.875 3.803-.234l19.281-19.28c1.105-.93 2.673-.968 3.596-.044.885.883.882 2.362.059 3.457l-14.751 14.753a2.963 2.963 0 0 0-.293.344l-1.438 1.437c-1.11 1.11-1.215 2.82-.232 3.803.98.982 2.689.877 3.8-.234l10.87-10.869c1.097-.824 2.578-.826 3.463.059.98.98.875 2.693-.233 3.803l-3.063 3.063c-1.11 1.109-1.215 2.822-.233 3.803.315.316.708.518 1.128.61a54.467 54.467 0 0 0 14.126-10.194 54.581 54.581 0 0 0 7.901-10.005Z"/><path fill="#DC2E75" d="M62.441 67.518a2.372 2.372 0 1 0 0-4.744 2.372 2.372 0 0 0 0 4.744ZM101.281 85.79a2.373 2.373 0 1 0 0-4.746 2.373 2.373 0 0 0 0 4.745Z"/><path fill="#D91574" d="M47.343 104.498a2.373 2.373 0 1 0 0-4.745 2.373 2.373 0 0 0 0 4.745Z"/><path fill="#C21372" d="M32.892 55.455a2.464 2.464 0 1 1-3.486-3.485l4.205-4.204a2.463 2.463 0 0 1 3.486 0 2.461 2.461 0 0 1 0 3.485l-4.205 4.204Z"/><path fill="#DC2E75" d="M75.105 84.69a2.462 2.462 0 0 1-3.484 0 2.46 2.46 0 0 1 0-3.486l4.202-4.203a2.464 2.464 0 0 1 3.487 0 2.461 2.461 0 0 1 0 3.484l-4.205 4.205Z"/><circle cx="67" cy="67" r="65" stroke="#F3BB7F" stroke-width="4"/></svg>