<svg xmlns="http://www.w3.org/2000/svg" fill="none" viewBox="0 0 61 61"><path fill="#F6CDB3" d="M25.786 55.665c-.051-.762-.795-1.34-1.658-1.281l-8.121.537c-.865.059-1.609-.52-1.661-1.28-.053-.763.614-1.435 1.476-1.491l3.49-.23c.041-.006.08-.011.12-.014l4.456-.297 8.122-.537c.862-.06 1.527-.73 1.478-1.49-.05-.717-.711-1.27-1.506-1.285l-14.98.992c-.861.058-1.608-.52-1.66-1.282-.05-.763.613-1.435 1.478-1.49l2.38-.158c.862-.058 1.527-.728 1.476-1.49-.042-.625-.554-1.126-1.213-1.253l-5.917.393c-.154.01-.307 0-.451-.03l-.914.062c-.861.058-1.608-.52-1.658-1.282-.051-.763.614-1.433 1.477-1.49l14.38-.952c.636-.215 1.077-.777 1.034-1.403-.047-.716-.709-1.27-1.505-1.286l-.513.035a1.59 1.59 0 0 1-.154.002l-7.609.504c-.863.059-1.61-.52-1.661-1.281-.05-.762.614-1.434 1.476-1.491l10.299-.683c.786-.121 1.37-.755 1.322-1.473-.051-.762-.797-1.34-1.662-1.281l-6.831.452a1.905 1.905 0 0 1-.321-.007l-4.349.287c-.864.058-1.609-.52-1.661-1.283-.051-.762.614-1.431 1.478-1.488l8.121-.54c.862-.056 1.528-.726 1.475-1.491-.045-.715-.71-1.266-1.503-1.283l-4.967.328c-.053.004-.105.006-.156.004l-3.154.209-4.455.295c-.861.058-1.607-.52-1.659-1.283-.051-.762.614-1.432 1.476-1.488l14.753-.98c.786-.12 1.368-.756 1.32-1.472-.04-.625-.55-1.127-1.21-1.254l-3.887.258c-.861.057-1.607-.52-1.658-1.283-.051-.762.613-1.433 1.476-1.49l.616-.04c.14-.048.285-.077.441-.087l7.508-.498c.635-.213 1.074-.777 1.033-1.403-.049-.716-.71-1.27-1.506-1.285l-19.433 1.289c-.862.058-1.609-.521-1.661-1.284-.049-.762.614-1.433 1.477-1.49l6.548-.434c.053-.01.102-.014.155-.018l.285-.018c.787-.122 1.368-.758 1.321-1.474-.045-.687-.657-1.224-1.409-1.28l-3.992.266c-.863.057-1.61-.52-1.658-1.283-.053-.762.613-1.432 1.475-1.49l1.119-.074c.078-.017.16-.03.244-.035l7.004-.464c.738-.155 1.275-.766 1.229-1.455-.05-.763-.797-1.34-1.658-1.282l-6.668.44C5.175 10.723-.505 21.016.245 32.368 1 43.717 7.989 53.17 17.649 57.603l6.668-.443c.857-.06 1.521-.731 1.47-1.495Z"/><path fill="#F5C09A" d="m36.445 3.571-2.38.157c-.861.058-1.525.728-1.475 1.489.047.689.66 1.225 1.412 1.281l8.444-.56c.862-.058 1.608.52 1.659 1.282.051.762-.612 1.433-1.475 1.49l-1.117.074c-.08.016-.162.029-.246.035l-11.461.76c-.74.156-1.273.768-1.229 1.454.046.716.709 1.269 1.506 1.286l14.979-.994c.861-.057 1.609.521 1.66 1.283.049.764-.613 1.434-1.477 1.492l-2.38.156c-.862.057-1.528.728-1.476 1.49.041.625.552 1.126 1.209 1.254l8.343-.553c.86-.058 1.608.52 1.659 1.281.049.763-.612 1.435-1.477 1.49l-.615.041a1.752 1.752 0 0 1-.441.088l-11.963.793c-.634.213-1.075.777-1.032 1.402.046.717.708 1.269 1.503 1.285l.514-.033c.053-.004.103-.004.154-.003l7.608-.505c.864-.058 1.612.52 1.662 1.281.05.764-.612 1.435-1.476 1.49l-10.299.684c-.785.121-1.369.756-1.322 1.473.05.762.797 1.341 1.659 1.283l6.835-.455c.107-.006.215-.002.318.009l4.353-.288c.862-.058 1.608.521 1.659 1.282.051.763-.613 1.435-1.475 1.491l-8.123.537c-.863.058-1.527.729-1.477 1.491.048.715.711 1.269 1.504 1.285l4.967-.328c.054-.005.105-.006.156-.005l3.154-.208 4.455-.296c.861-.058 1.609.521 1.658 1.283.053.762-.613 1.433-1.475 1.49l-14.751.978c-.788.122-1.37.757-1.323 1.473.042.626.552 1.126 1.211 1.254l1.465-.097c.154-.01.307 0 .45.028l.913-.061c.861-.058 1.609.519 1.66 1.282.05.762-.613 1.432-1.477 1.49l-9.927.658c-.636.213-1.075.776-1.034 1.402.047.717.711 1.269 1.505 1.285l19.435-1.288c.861-.058 1.609.521 1.659 1.282.05.761-.613 1.434-1.476 1.49l-6.548.434c-.05.008-.103.016-.153.018l-.287.02c-.785.122-1.369.756-1.322 1.474.051.761.799 1.339 1.66 1.282l2.379-.158c.863-.057 1.609.52 1.66 1.281.05.764-.613 1.434-1.477 1.491l-3.482.231-.129.014-6.834.452c-.862.058-1.527.729-1.477 1.491.05.762.799 1.338 1.66 1.281l2.379-.156c.862-.058 1.611.519 1.66 1.281.017.244-.041.479-.156.689 11.6-4.739 19.412-16.499 18.537-29.689-.873-13.192-10.169-23.816-22.295-26.984.143.191.232.417.248.662.057.768-.607 1.44-1.472 1.496Z"/><path fill="#F1A87A" d="M21.228 1.796a29.648 29.648 0 0 0-7.067 3.252l6.668-.441c.86-.057 1.608.52 1.658 1.282.046.689-.491 1.3-1.23 1.455l-7.003.464a1.886 1.886 0 0 0-.244.035l-1.12.075c-.86.058-1.526.728-1.474 1.489.049.764.795 1.34 1.658 1.283l3.992-.266c.752.057 1.364.594 1.409 1.28.047.716-.534 1.352-1.321 1.474l-.285.018a1.565 1.565 0 0 0-.155.018l-6.548.434c-.862.058-1.525.729-1.477 1.49.052.764.799 1.342 1.66 1.284l19.434-1.289c.797.017 1.457.569 1.506 1.285.04.626-.398 1.19-1.033 1.403l-7.508.498c-.156.01-.302.039-.441.087l-.616.04c-.862.058-1.526.729-1.476 1.49.051.764.797 1.34 1.658 1.283l3.887-.258c.66.127 1.171.629 1.211 1.254.047.716-.535 1.352-1.321 1.473l-14.753.979c-.861.057-1.526.727-1.476 1.488.052.764.798 1.341 1.659 1.283l4.455-.295 3.154-.209c.051.002.104 0 .156-.004l4.967-.328c.793.018 1.458.568 1.503 1.283.054.766-.612 1.436-1.475 1.492l-8.121.539c-.863.058-1.528.727-1.478 1.488.052.764.797 1.341 1.66 1.283l4.35-.287c.105.011.213.014.321.007l6.831-.452c.865-.059 1.611.52 1.662 1.281.049.718-.536 1.352-1.322 1.473l-10.3.683c-.86.058-1.524.729-1.475 1.491.052.762.798 1.34 1.661 1.281l7.609-.504c.05.002.103.001.154-.002l.513-.035c.796.018 1.458.57 1.505 1.286.043.626-.398 1.188-1.033 1.403l-14.381.953c-.862.057-1.527.727-1.477 1.489.05.763.797 1.34 1.658 1.282l.914-.061c.145.029.297.039.45.029l5.918-.393c.659.127 1.17.628 1.213 1.254.052.762-.613 1.432-1.476 1.489l-2.38.158c-.864.056-1.526.728-1.478 1.49.052.763.799 1.34 1.66 1.282l14.98-.992c.795.017 1.457.568 1.506 1.285.05.762-.615 1.432-1.478 1.49l-8.122.537-4.455.297c-.041.003-.08.008-.121.014l-3.49.23c-.861.057-1.528.729-1.476 1.492.052.76.796 1.338 1.66 1.279l8.122-.537c.863-.059 1.607.52 1.658 1.281.05.764-.613 1.436-1.475 1.49l-6.668.443a29.714 29.714 0 0 0 7.434 2.292 29.91 29.91 0 0 0 7.008.354 29.987 29.987 0 0 0 9.347-2.152c.115-.21.173-.445.156-.689-.05-.763-.798-1.339-1.66-1.281l-2.38.156c-.86.057-1.608-.52-1.659-1.281-.051-.761.614-1.434 1.477-1.491l6.834-.452.129-.014 3.482-.231c.863-.058 1.526-.728 1.477-1.491-.051-.762-.797-1.338-1.66-1.281l-2.38.158c-.86.057-1.608-.521-1.659-1.282-.047-.718.537-1.352 1.322-1.474l.287-.02c.05-.002.104-.01.153-.018l6.548-.434c.862-.057 1.525-.729 1.476-1.49-.05-.761-.798-1.34-1.66-1.282l-19.434 1.288c-.794-.017-1.458-.568-1.505-1.285-.041-.626.398-1.189 1.034-1.402l9.927-.658c.863-.059 1.526-.729 1.477-1.49-.051-.764-.8-1.34-1.66-1.282l-.913.061a1.765 1.765 0 0 0-.45-.028l-1.465.097c-.66-.128-1.17-.628-1.211-1.254-.047-.716.535-1.351 1.323-1.473l14.751-.978c.861-.058 1.527-.729 1.475-1.49-.05-.763-.797-1.341-1.658-1.283l-4.455.296-3.154.208a1.37 1.37 0 0 0-.156.005l-4.967.328c-.793-.017-1.456-.57-1.504-1.285-.051-.763.613-1.434 1.477-1.491l8.123-.537c.86-.057 1.525-.729 1.475-1.491-.051-.762-.797-1.34-1.66-1.282l-4.352.288a1.978 1.978 0 0 0-.318-.009l-6.835.455c-.862.058-1.61-.521-1.66-1.283-.046-.717.538-1.352 1.323-1.473l10.299-.684c.863-.056 1.525-.727 1.476-1.49-.05-.762-.798-1.339-1.662-1.281l-7.608.505a1.583 1.583 0 0 0-.154.003l-.514.033c-.795-.017-1.457-.568-1.503-1.285-.043-.625.398-1.189 1.032-1.402l11.963-.793c.154-.01.3-.041.44-.088l.616-.041c.864-.056 1.525-.728 1.477-1.49-.051-.762-.799-1.339-1.659-1.281l-8.343.553c-.657-.128-1.168-.629-1.209-1.254-.053-.763.613-1.434 1.476-1.49l2.38-.156c.863-.059 1.525-.729 1.477-1.492-.051-.762-.8-1.34-1.66-1.283l-14.98.994c-.796-.018-1.459-.57-1.505-1.286-.045-.687.488-1.298 1.229-1.454l11.461-.76c.084-.006.166-.02.246-.035l1.117-.074c.862-.058 1.525-.728 1.475-1.49-.05-.762-.797-1.34-1.659-1.282l-8.444.56c-.752-.057-1.365-.592-1.412-1.281-.051-.762.613-1.432 1.475-1.489l2.38-.157c.864-.057 1.528-.729 1.478-1.49a1.234 1.234 0 0 0-.248-.662 29.795 29.795 0 0 0-9.548-.9 29.895 29.895 0 0 0-6.9 1.276Z"/></svg>