<svg xmlns="http://www.w3.org/2000/svg" viewBox="0 0 3291.956 1265.629">
    <g transform="matrix(14.5978 0 0 14.5978 145.978 145.978)">
        <path id="SvgjsG4145" fill="#01de1cba"
              d="M4.1 20.18c-.653 0-1.234-.087-1.74-.26s-.933-.45-1.28-.83-.603-.877-.77-1.49-.237-1.353-.21-2.22h1.2c0 .427.02.87.06 1.33s.147.88.32 1.26.437.69.79.93.843.36 1.47.36c.533 0 .987-.08 1.36-.24s.677-.373.91-.64.397-.58.49-.94.14-.733.14-1.12c0-.453-.083-.85-.25-1.19s-.387-.643-.66-.91-.593-.503-.96-.71-.75-.39-1.15-.55c-.64-.253-1.2-.503-1.68-.75s-.873-.523-1.18-.83-.537-.663-.69-1.07-.23-.903-.23-1.49c0-1.333.35-2.327 1.05-2.98s1.703-.98 3.01-.98c1.133 0 2.03.33 2.69.99s.99 1.65.99 2.97v1.1H6.66v-1.2c0-.413-.05-.797-.15-1.15s-.257-.663-.47-.93-.483-.477-.81-.63-.717-.23-1.17-.23c-1.067 0-1.83.28-2.29.84s-.67 1.313-.63 2.26c.013.413.09.767.23 1.06s.327.55.56.77.513.417.84.59.69.347 1.09.52c.467.2.93.413 1.39.64s.89.507 1.29.84c.4.347.73.75.99 1.21s.39 1.03.39 1.71c0 1.32-.337 2.31-1.01 2.97s-1.61.99-2.81.99zm8.46-5.82H10.4V20H9.24V5h3.62c1.32 0 2.357.403 3.11 1.21s1.13 1.977 1.13 3.51c0 .68-.11 1.303-.33 1.87s-.53 1.057-.93 1.47-.877.733-1.43.96-1.17.34-1.85.34zm-.1-8.34H10.4v7.24h1.86c.68 0 1.253-.097 1.72-.29s.843-.453 1.13-.78.493-.707.62-1.14.19-.89.19-1.37c0-.493-.047-.963-.14-1.41s-.267-.837-.52-1.17-.607-.597-1.06-.79-1.033-.29-1.74-.29zM24.7 20l-1.1-4.42h-4.88L17.62 20h-1l4.14-15h.86l4.12 15H24.7zM21.22 5.94l-2.26 8.68h4.38zm11.82 10.28c-.013.667-.077 1.25-.19 1.75s-.307.913-.58 1.24-.633.57-1.08.73-1.01.24-1.69.24c-1.173 0-2.027-.327-2.56-.98s-.8-1.647-.8-2.98v-7.4c0-1.333.27-2.327.81-2.98s1.463-.98 2.77-.98c1.173 0 2.013.327 2.52.98s.773 1.647.8 2.98l.02.92h-.92l-.02-1.16c0-.333-.033-.67-.1-1.01s-.187-.65-.36-.93-.417-.507-.73-.68-.73-.26-1.25-.26c-.507 0-.93.08-1.27.24s-.61.38-.81.66-.337.61-.41.99-.11.79-.11 1.23l.04 7.5c0 .92.17 1.64.51 2.16s.963.78 1.87.78c.52 0 .95-.07 1.29-.21s.607-.337.8-.59.33-.56.41-.92.12-.753.12-1.18l.02-1.3h.92zM34.86 20V5h7.36v1.16H35.9v5.7h6.26v.92H35.9v6.06h6.46V20h-7.5zM48.18 6.14v6.06h6.02v1.06h-6.02V20h-1.16V5h7.28v1.14h-6.12zm10.64 14.04c-2.52 0-3.78-1.32-3.78-3.96v-7.4c0-1.333.317-2.327.95-2.98s1.657-.98 3.07-.98c1.293 0 2.25.33 2.87.99s.93 1.637.93 2.93v7.44c0 .667-.07 1.247-.21 1.74s-.37.907-.69 1.24-.737.58-1.25.74-1.143.24-1.89.24zM61.8 8.76c0-.333-.047-.673-.14-1.02s-.247-.663-.46-.95-.497-.52-.85-.7-.79-.27-1.31-.27c-.573 0-1.05.08-1.43.24s-.68.383-.9.67-.377.623-.47 1.01-.14.807-.14 1.26v7.1c0 .347.04.7.12 1.06s.223.69.43.99.487.547.84.74.797.29 1.33.29c.573 0 1.05-.077 1.43-.23s.683-.363.91-.63.39-.583.49-.95.15-.763.15-1.19V8.76zM71.94 20l-3.3-6.22h-3.06V20h-.98V5H68c.787 0 1.46.117 2.02.35s1.02.55 1.38.95.627.863.8 1.39.26 1.077.26 1.65c0 .973-.25 1.85-.75 2.63s-1.157 1.35-1.97 1.71L73.26 20h-1.32zM67.86 5.92h-2.28v6.84H68c.68 0 1.24-.103 1.68-.31s.783-.473 1.03-.8.42-.7.52-1.12.15-.85.15-1.29c0-.467-.08-.9-.24-1.3s-.39-.75-.69-1.05-.667-.537-1.1-.71-.93-.26-1.49-.26zM85.88 20l-1.1-4.42H79.9L78.8 20h-1l4.14-15h.86l4.12 15h-1.04zM82.4 5.94l-2.26 8.68h4.38zM87.88 20V5h1.08v13.92h5.1V20h-6.18zm7.3 0V5h1.08v13.92h5.1V20h-6.18z"
              transform="translate(34.946 39.433) scale(1.35117)"/>
        <path id="SvgjsG4146" fill="#01de1cba"
              d="M1.08 39.4v-5.64c.48.12 1.08.24 1.76.32.68.12 1.4.2 2.16.24s1.52.08 2.32.12 1.56.08 2.24.08c1.88 0 3.2-.12 4-.32.76-.2 1.16-.56 1.16-1.12 0-.48-.36-.84-.72-1.12-1.32-.88-2.88-1.24-4.44-1.6-4.4-.88-8.44-2.64-8.44-7.68 0-5.96 5.64-7.36 10.48-7.36 2.68 0 5.4.28 8 .92v5.64c-.4-.12-.92-.2-1.56-.32-.68-.08-1.36-.16-2.12-.24-1.56-.16-3.04-.24-4.6-.24-.88 0-2.72 0-3.56.32-.56.2-.92.44-.92 1.08 0 .32.08.6.24.84.16.28.44.48.8.68 1.08.6 2.48.96 3.68 1.24 1 .24 2 .52 3.04.8 3.52.96 5.84 2.92 5.84 6.68 0 6.2-6.16 7.52-11.12 7.52-2.72 0-5.56-.2-8.24-.84zm34.44-4.76c4.36 0 6.6-2.8 6.6-6.88 0-4.32-2.4-6.88-6.6-6.88-4.4 0-6.6 2.8-6.6 6.88 0 4.24 2.44 6.88 6.6 6.88zm0 5.56c-7.52 0-12.6-5.12-12.6-12.44 0-7.56 5.32-12.44 12.6-12.44 7.56 0 12.6 5.08 12.6 12.44 0 7.6-5.28 12.44-12.6 12.44zm34.52-5.76V40h-18.2V15.52h6v18.92h12.2z"
              transform="translate(-1.356 -19.23) scale(1.25523)"/>
        <g id="SvgjsG4147" fill="#9379ad" transform="translate(86.354 -5.645) scale(.70585)">
            <path xmlns="http://www.w3.org/2000/svg"
                  d="M51 15.85a3.81 3.81 0 0 0 1 .15 4 4 0 1 0-4-4 3.81 3.81 0 0 0 .15 1l-2.65 2.67A2 2 0 0 1 43 16a20.87 20.87 0 0 0-22 0 2 2 0 0 1-2.46-.28L15.85 13c.29-1.09.3-2.3-1.31-3.88A3.63 3.63 0 0 0 11.79 8 4 4 0 0 0 8 11.79a3.63 3.63 0 0 0 1.13 2.75c1.58 1.61 2.79 1.6 3.88 1.31l2.33 2.33a2 2 0 0 1 .15 2.66 20.84 20.84 0 0 0-4.5 13C11 45.39 20.4 59 32 59s21-13.61 21-25.21a20.84 20.84 0 0 0-4.5-12.95 2 2 0 0 1 .15-2.66ZM18 43.33c-2.34-2.34-3.75-7.55-1.41-9.89s7.54-.93 9.88 1.41 4.46 8.25 2.12 10.59-8.28.23-10.59-2.11Zm17.57 9.21a5 5 0 0 1-7.08 0 1 1 0 0 1 1.42-1.42 3.08 3.08 0 0 0 4.24 0 1 1 0 0 1 1.42 1.42ZM46 43.33c-2.34 2.34-8.25 4.45-10.59 2.11s-.23-8.25 2.11-10.59 7.48-3.75 9.86-1.41.93 7.56-1.38 9.89Z"/>
        </g>
        <path id="SvgjsG4148" fill="#01de1cba"
              d="M8.28 21.16V27h5.6c1.84 0 2.92-1.08 2.92-2.92s-1.08-2.92-2.92-2.92h-5.6zm9.08 9.8c1.12 1.52 2.24 3.04 3.4 4.52 1.12 1.48 2.24 3 3.36 4.52H16.8c-1.44-1.92-2.84-3.84-4.24-5.76-1.4-1.88-2.84-3.8-4.28-5.72V40h-6V15.52h11.6c4.56 0 8.44 3.48 8.44 8.08 0 3.24-2 6.08-4.96 7.36zM51.04 30l1.6 2.08c.84-1.28 1.16-2.8 1.16-4.32 0-4.32-2.4-6.88-6.6-6.88-4.4 0-6.6 2.8-6.6 6.88 0 4.24 2.44 6.88 6.6 6.88L43.72 30h7.32zm5.16 6.84L61.64 44h-7.48l-3.2-4.28c-1.12.32-2.36.48-3.76.48-7.52 0-12.6-5.12-12.6-12.44 0-7.56 5.32-12.44 12.6-12.44 7.56 0 12.6 5.08 12.6 12.44 0 3.52-1.04 6.6-3.6 9.08z"
              transform="translate(128.138 -19.23) scale(1.25523)"/>
    </g>
</svg>
